<svg id="SvgjsSvg1010" width="5000px" height="3539.94927076728px" xmlns="http://www.w3.org/2000/svg" version="1.1" xmlns:xlink="http://www.w3.org/1999/xlink" xmlns:svgjs="http://svgjs.com/svgjs" viewBox="0 0 49.28125 34.890625"><defs id="SvgjsDefs1011"></defs><g id="SvgjsG1013" transform="rotate(0 24.640625 15.9453125)"><svg xmlns="http://www.w3.org/2000/svg" xmlns:xlink="http://www.w3.org/1999/xlink" width="49.28125" viewBox="0.42000001668930054 8.355896949768066 49.28333282470703 31.905014038085938" overflow="visible" style="overflow: visible;" transform="" version="1.1" xmlns:svgjs="http://svgjs.com/svgjs" preserveAspectRatio="none" height="31.890625" x="0" y="0" fill="#000000" stroke="none"><path stroke="none" fill="#000000" d="M30.23 20.66L30.43 20.82L30.43 20.82Q30.43 21.13 30.39 21.25L30.39 21.25L30.39 21.25Q30.35 21.37 30.35 21.56L30.35 21.56L30.35 21.56Q30.35 21.72 30.31 21.80L30.31 21.80L30.31 21.80Q30.27 21.88 30.21 21.95L30.21 21.95L30.21 21.95Q30.16 22.03 30.14 22.11L30.14 22.11L30.14 22.11Q30.12 22.19 30.20 22.27L30.20 22.27L30.20 22.27Q30.04 22.70 29.96 22.77L29.96 22.77L29.96 22.77Q29.88 22.85 29.96 23.01L29.96 23.01L29.96 23.01Q29.80 23.05 29.82 23.22L29.82 23.22L29.82 23.22Q29.84 23.40 29.92 23.55L29.92 23.55L29.92 23.55Q29.84 23.63 29.77 23.71L29.77 23.71L29.77 23.71Q29.69 23.79 29.73 23.98L29.73 23.98L29.73 23.98Q29.53 24.65 29.20 25.16L29.20 25.16L29.20 25.16Q28.87 25.66 28.75 26.37L28.75 26.37L28.75 26.37Q28.52 26.56 28.52 26.84L28.52 26.84L28.52 26.84Q28.36 27.03 28.28 27.23L28.28 27.23L28.28 27.23Q28.20 27.42 28.01 27.50L28.01 27.50L28.01 27.50Q28.05 27.62 27.99 27.81L27.99 27.81L27.99 27.81Q27.93 28.01 27.73 27.93L27.73 27.93L27.73 27.93Q27.54 28.40 27.15 28.67L27.15 28.67L27.15 28.67Q27.15 28.83 27.05 28.96L27.05 28.96L27.05 28.96Q26.95 29.10 26.76 29.14L26.76 29.14L26.76 29.14Q26.68 29.30 26.54 29.34L26.54 29.34L26.54 29.34Q26.41 29.38 26.33 29.57L26.33 29.57L26.33 29.57Q26.17 29.69 26.05 29.69L26.05 29.69L26.05 29.69Q25.94 29.69 26.02 29.88L26.02 29.88L26.02 29.88Q25.82 29.96 25.74 30.04L25.74 30.04L25.74 30.04Q25.66 30.12 25.47 30.08L25.47 30.08L25.47 30.08Q24.92 30.63 24.22 31.05L24.22 31.05L24.22 31.05Q23.52 31.48 22.81 31.91L22.81 31.91L22.81 31.91Q22.66 31.84 22.54 31.93L22.54 31.93L22.54 31.93Q22.42 32.03 22.27 31.95L22.27 31.95L22.27 31.95Q21.88 32.27 21.39 32.21L21.39 32.21L21.39 32.21Q20.90 32.15 20.55 32.27L20.55 32.27L20.55 32.27Q20.35 32.19 20.21 32.19L20.21 32.19L20.21 32.19Q20.08 32.19 19.92 32.11L19.92 32.11L19.92 32.11Q19.77 32.11 19.61 32.13L19.61 32.13L19.61 32.13Q19.45 32.15 19.41 31.99L19.41 31.99L19.41 31.99Q19.22 32.07 19.08 31.99L19.08 31.99L19.08 31.99Q18.95 31.91 18.75 31.99L18.75 31.99L18.75 31.99Q18.09 31.88 17.68 31.60L17.68 31.60L17.68 31.60Q17.27 31.33 17.07 30.90L17.07 30.90L17.07 30.90Q16.76 30.94 16.66 30.78L16.66 30.78L16.66 30.78Q16.56 30.63 16.37 30.47L16.37 30.47L16.37 30.47Q16.21 30.27 16.21 29.96L16.21 29.96L16.21 29.96Q16.21 29.65 16.02 29.57L16.02 29.57L16.02 29.57Q15.74 29.77 15.51 30.04L15.51 30.04L15.51 30.04Q15.27 30.31 15.04 30.39L15.04 30.39L15.04 30.39Q14.96 30.51 14.88 30.61L14.88 30.61L14.88 30.61Q14.80 30.70 14.77 30.86L14.77 30.86L14.77 30.86Q14.30 31.13 13.95 31.52L13.95 31.52L13.95 31.52Q13.59 31.91 13.13 32.15L13.13 32.15L13.13 32.15Q12.15 32.58 11.25 32.58L11.25 32.58L11.25 32.58Q10.35 32.58 9.57 32.38L9.57 32.38L9.57 32.38Q8.55 32.07 8.11 31.29L8.11 31.29L8.11 31.29Q7.66 30.51 7.15 29.61L7.15 29.61L7.15 29.61Q7.23 29.30 7.01 29.10L7.01 29.10L7.01 29.10Q6.80 28.91 6.80 28.59L6.80 28.59L6.80 28.59Q6.84 28.44 6.91 28.26L6.91 28.26L6.91 28.26Q6.99 28.09 7.07 27.89L7.07 27.89L7.07 27.89Q6.99 27.42 7.03 26.88L7.03 26.88L7.03 26.88Q7.07 26.33 7.15 25.78L7.15 25.78L7.15 25.78Q7.27 25.63 7.27 25.39L7.27 25.39L7.27 25.39Q7.27 25.16 7.38 25L7.38 25L7.38 25Q7.46 24.61 7.58 24.34L7.58 24.34L7.58 24.34Q7.70 24.06 7.83 23.83L7.83 23.83L7.83 23.83Q7.97 23.59 8.09 23.34L8.09 23.34L8.09 23.34Q8.20 23.09 8.28 22.73L8.28 22.73L8.28 22.73Q8.09 22.27 8.22 22.23L8.22 22.23L8.22 22.23Q8.36 22.19 8.36 21.99L8.36 21.99L8.36 21.99Q8.71 21.84 8.83 21.43L8.83 21.43L8.83 21.43Q8.95 21.02 9.30 20.82L9.30 20.82L9.30 20.82Q9.38 20.51 9.65 20.23L9.65 20.23L9.65 20.23Q9.92 19.96 10 19.53L10 19.53L10 19.53Q10.31 19.06 10.66 18.73L10.66 18.73L10.66 18.73Q11.02 18.40 11.29 18.05L11.29 18.05L11.29 18.05Q11.95 17.34 12.89 16.72L12.89 16.72L12.89 16.72Q13.09 16.56 13.30 16.35L13.30 16.35L13.30 16.35Q13.52 16.13 13.71 16.05L13.71 16.05L13.71 16.05Q13.91 15.98 14.20 15.88L14.20 15.88L14.20 15.88Q14.49 15.78 14.73 15.70L14.73 15.70L14.73 15.70Q14.92 15.63 15.43 15.51L15.43 15.51L15.43 15.51Q15.94 15.39 16.21 15.47L16.21 15.47L16.21 15.47Q16.60 15.70 16.88 15.72L16.88 15.72L16.88 15.72Q17.15 15.74 17.34 15.94L17.34 15.94L17.34 15.94Q18.36 16.48 18.75 17.15L18.75 17.15L18.75 17.15Q18.98 16.88 19.47 16.84L19.47 16.84L19.47 16.84Q19.96 16.80 20.27 16.52L20.27 16.52L20.27 16.52Q20.59 16.52 20.88 16.52L20.88 16.52L20.88 16.52Q21.17 16.52 21.33 16.37L21.33 16.37L21.33 16.37Q21.68 16.33 21.95 16.43L21.95 16.43L21.95 16.43Q22.23 16.52 22.54 16.64L22.54 16.64L22.54 16.64Q22.58 16.91 22.58 17.27L22.58 17.27L22.58 17.27Q22.58 17.62 22.30 17.77L22.30 17.77L22.30 17.77Q22.23 18.24 21.95 18.48L21.95 18.48L21.95 18.48Q21.91 19.02 21.91 19.18L21.91 19.18L21.91 19.18Q21.80 19.26 21.76 19.39L21.76 19.39L21.76 19.39Q21.72 19.53 21.68 19.71L21.68 19.71L21.68 19.71Q21.64 19.88 21.56 20.02L21.56 20.02L21.56 20.02Q21.48 20.16 21.37 20.20L21.37 20.20L21.37 20.20Q21.48 20.39 21.43 20.63L21.43 20.63L21.43 20.63Q21.37 20.86 21.41 21.05L21.41 21.05L21.41 21.05Q21.05 21.60 20.84 21.86L20.84 21.86L20.84 21.86Q20.63 22.11 20.70 22.46L20.70 22.46L20.70 22.46Q20.59 22.81 20.51 23.05L20.51 23.05L20.51 23.05Q20.43 23.28 20.23 23.44L20.23 23.44L20.23 23.44Q20.04 24.38 19.86 24.92L19.86 24.92L19.86 24.92Q19.69 25.47 19.61 26.05L19.61 26.05L19.61 26.05Q19.41 26.68 19.36 27.15L19.36 27.15L19.36 27.15Q19.30 27.62 19.10 27.97L19.10 27.97L19.10 27.97Q19.14 28.59 19.00 29.18L19.00 29.18L19.00 29.18Q18.87 29.77 19.06 30.51L19.06 30.51L19.06 30.51Q19.49 30.35 19.51 30.45L19.51 30.45L19.51 30.45Q19.53 30.55 19.61 30.55L19.61 30.55L19.61 30.55Q19.34 31.02 19.47 31.13L19.47 31.13L19.47 31.13Q19.61 31.25 19.77 31.37L19.77 31.37L19.77 31.37Q19.88 31.29 19.98 31.23L19.98 31.23L19.98 31.23Q20.08 31.17 20.23 31.13L20.23 31.13L20.23 31.13Q20.35 31.21 20.29 31.35L20.29 31.35L20.29 31.35Q20.23 31.48 20.16 31.64L20.16 31.64L20.16 31.64Q20.94 31.84 21.80 31.60L21.80 31.60L21.80 31.60Q22.66 31.37 23.20 31.05L23.20 31.05L23.20 31.05Q22.97 30.70 22.81 30.78L22.81 30.78L22.81 30.78Q22.89 30.70 22.91 30.55L22.91 30.55L22.91 30.55Q22.93 30.39 23.13 30.39L23.13 30.39L23.13 30.39Q23.48 30.08 23.46 30.10L23.46 30.10L23.46 30.10Q23.44 30.12 23.44 30.04L23.44 30.04L23.44 30.04Q23.63 29.73 23.93 29.57L23.93 29.57L23.93 29.57Q24.22 29.41 24.45 29.18L24.45 29.18L24.45 29.18Q24.69 28.83 24.86 28.42L24.86 28.42L24.86 28.42Q25.04 28.01 25.39 27.77L25.39 27.77L25.39 27.77Q25.47 27.42 25.74 27.07L25.74 27.07L25.74 27.07Q26.02 26.72 26.21 26.37L26.21 26.37L26.21 26.37Q26.45 25.66 26.82 25.02L26.82 25.02L26.82 25.02Q27.19 24.38 27.34 23.71L27.34 23.71L27.34 23.71Q27.42 23.20 27.52 23.18L27.52 23.18L27.52 23.18Q27.62 23.16 27.62 23.09L27.62 23.09L27.62 23.09Q27.54 22.62 27.66 22.01L27.66 22.01L27.66 22.01Q27.77 21.41 27.93 21.09L27.93 21.09L27.93 21.09Q27.70 20.86 27.71 20.74L27.71 20.74L27.71 20.74Q27.73 20.63 27.73 20.35L27.73 20.35L27.73 20.35Q27.50 20.04 27.40 20L27.40 20L27.40 20Q27.30 19.96 27.19 19.88L27.19 19.88L27.19 19.88Q27.19 19.49 27.42 19.49L27.42 19.49L27.42 19.49Q27.46 18.98 27.77 18.98L27.77 18.98L27.77 18.98Q27.46 18.52 27.42 18.36L27.42 18.36L27.42 18.36Q27.38 18.20 27.40 18.01L27.40 18.01L27.40 18.01Q27.42 17.81 27.48 17.62L27.48 17.62L27.48 17.62Q27.54 17.42 27.46 17.27L27.46 17.27L27.46 17.27Q27.19 17.03 27.17 16.88L27.17 16.88L27.17 16.88Q27.15 16.72 27.11 16.52L27.11 16.52L27.11 16.52Q26.99 16.33 26.97 16.17L26.97 16.17L26.97 16.17Q26.95 16.02 26.95 15.74L26.95 15.74L26.95 15.74Q26.48 15.74 26.45 15.68L26.45 15.68L26.45 15.68Q26.41 15.63 26.33 15.63L26.33 15.63L26.33 15.63Q26.52 15.20 26.58 14.90L26.58 14.90L26.58 14.90Q26.64 14.61 26.64 14.45L26.64 14.45L26.64 14.45Q26.60 14.18 26.54 14.14L26.54 14.14L26.54 14.14Q26.48 14.10 26.45 14.02L26.45 14.02L26.45 14.02Q26.29 13.91 26.09 13.65L26.09 13.65L26.09 13.65Q25.90 13.40 26.02 12.97L26.02 12.97L26.02 12.97Q25.74 12.89 25.59 12.77L25.59 12.77L25.59 12.77Q25.51 12.62 25.43 12.54L25.43 12.54L25.43 12.54Q25.35 12.46 25.20 12.42L25.20 12.42L25.20 12.42Q25.27 12.23 25.10 12.19L25.10 12.19L25.10 12.19Q24.92 12.15 24.84 12.07L24.84 12.07L24.84 12.07Q24.30 11.76 24.00 11.45L24.00 11.45L24.00 11.45Q23.71 11.13 23.48 10.82L23.48 10.82L23.48 10.82Q23.28 10.90 23.18 10.78L23.18 10.78L23.18 10.78Q23.09 10.66 22.89 10.63L22.89 10.63L22.89 10.63Q22.73 10.47 22.70 10.37L22.70 10.37L22.70 10.37Q22.66 10.27 22.46 10.23L22.46 10.23L22.46 10.23Q21.88 10.16 21.95 10.04L21.95 10.04L21.95 10.04Q21.72 10.20 21.58 10.12L21.58 10.12L21.58 10.12Q21.45 10.04 21.45 10.23L21.45 10.23L21.45 10.23Q21.13 10.04 20.80 9.84L20.80 9.84L20.80 9.84Q20.47 9.65 20.04 9.80L20.04 9.80L20.04 9.80Q19.45 9.45 19.12 9.36L19.12 9.36L19.12 9.36Q18.79 9.26 18.48 9.34L18.48 9.34L18.48 9.34Q18.24 9.14 17.95 9.24L17.95 9.24L17.95 9.24Q17.66 9.34 17.58 9.02L17.58 9.02L17.58 9.02Q17.38 9.10 17.19 9.16L17.19 9.16L17.19 9.16Q16.99 9.22 16.80 9.30L16.80 9.30L16.80 9.30Q16.21 9.22 15.72 9.22L15.72 9.22L15.72 9.22Q15.23 9.22 14.80 9.41L14.80 9.41L14.80 9.41Q14.34 9.57 14.14 9.55L14.14 9.55L14.14 9.55Q13.95 9.53 13.75 9.61L13.75 9.61L13.75 9.61Q13.59 9.69 13.54 9.82L13.54 9.82L13.54 9.82Q13.48 9.96 13.32 9.80L13.32 9.80L13.32 9.80Q13.05 10.12 12.73 10.12L12.73 10.12L12.73 10.12Q12.42 10.12 12.27 10.12L12.27 10.12L12.27 10.12Q12.03 10.23 11.97 10.27L11.97 10.27L11.97 10.27Q11.91 10.31 11.84 10.23L11.84 10.23L11.84 10.23Q11.41 10.43 11.46 10.45L11.46 10.45L11.46 10.45Q11.52 10.47 11.48 10.55L11.48 10.55L11.48 10.55Q10.94 10.78 10.55 11.04L10.55 11.04L10.55 11.04Q10.16 11.29 9.73 11.45L9.73 11.45L9.73 11.45Q9.26 11.84 8.71 12.05L8.71 12.05L8.71 12.05Q8.16 12.27 7.85 12.77L7.85 12.77L7.85 12.77Q7.62 12.70 7.50 12.81L7.50 12.81L7.50 12.81Q7.38 12.93 7.19 12.97L7.19 12.97L7.19 12.97Q6.64 13.63 6.00 14.20L6.00 14.20L6.00 14.20Q5.35 14.77 4.92 15.55L4.92 15.55L4.92 15.55Q4.84 15.78 4.80 15.84L4.80 15.84L4.80 15.84Q4.77 15.90 4.69 15.94L4.69 15.94L4.69 15.94Q4.49 16.21 4.47 16.48L4.47 16.48L4.47 16.48Q4.45 16.76 4.14 16.84L4.14 16.84L4.14 16.84Q3.98 17.42 3.65 17.87L3.65 17.87L3.65 17.87Q3.32 18.32 3.24 18.95L3.24 18.95L3.24 18.95Q3.16 19.14 3.05 19.36L3.05 19.36L3.05 19.36Q2.93 19.57 2.97 19.77L2.97 19.77L2.97 19.77Q2.97 20.16 2.75 20.43L2.75 20.43L2.75 20.43Q2.54 20.70 2.62 20.98L2.62 20.98L2.62 20.98Q2.46 21.45 2.40 21.88L2.40 21.88L2.40 21.88Q2.34 22.30 2.15 22.70L2.15 22.70L2.15 22.70Q2.15 23.16 2.19 23.30L2.19 23.30L2.19 23.30Q2.23 23.44 2.15 23.63L2.15 23.63L2.15 23.63Q2.38 23.79 2.58 23.83L2.58 23.83L2.58 23.83Q2.50 24.38 2.23 24.61L2.23 24.61L2.23 24.61Q2.46 25.20 2.15 25.43L2.15 25.43L2.15 25.43Q2.30 26.17 2.48 26.70L2.48 26.70L2.48 26.70Q2.66 27.23 2.70 27.81L2.70 27.81L2.70 27.81Q2.73 28.32 2.85 28.59L2.85 28.59L2.85 28.59Q2.97 28.87 3.01 29.14L3.01 29.14L3.01 29.14Q3.13 29.38 3.20 29.61L3.20 29.61L3.20 29.61Q3.28 29.84 3.36 30.20L3.36 30.20L3.36 30.20Q3.52 30.59 3.48 30.84L3.48 30.84L3.48 30.84Q3.44 31.09 3.67 31.29L3.67 31.29L3.67 31.29Q3.59 31.45 3.67 31.64L3.67 31.64L3.67 31.64Q3.75 31.84 3.91 32.03L3.91 32.03L3.91 32.03Q4.06 32.23 4.22 32.40L4.22 32.40L4.22 32.40Q4.38 32.58 4.41 32.73L4.41 32.73L4.41 32.73Q4.49 32.85 4.55 32.99L4.55 32.99L4.55 32.99Q4.61 33.13 4.69 33.32L4.69 33.32L4.69 33.32Q4.84 33.52 4.96 33.67L4.96 33.67L4.96 33.67Q5.08 33.83 5.12 34.10L5.12 34.10L5.12 34.10Q5.98 35 6.80 35.88L6.80 35.88L6.80 35.88Q7.62 36.76 8.83 37.30L8.83 37.30L8.83 37.30Q9.53 37.77 9.84 37.99L9.84 37.99L9.84 37.99Q10.16 38.20 10.47 38.48L10.47 38.48L10.47 38.48Q10.94 38.67 11.33 38.83L11.33 38.83L11.33 38.83Q11.72 38.98 12.03 39.22L12.03 39.22L12.03 39.22Q12.46 39.22 12.81 39.26L12.81 39.26L12.81 39.26Q13.16 39.30 13.44 39.45L13.44 39.45L13.44 39.45Q13.98 39.45 14.53 39.53L14.53 39.53L14.53 39.53Q15.08 39.61 15.63 39.67L15.63 39.67L15.63 39.67Q16.17 39.73 16.70 39.69L16.70 39.69L16.70 39.69Q17.23 39.65 17.73 39.45L17.73 39.45L17.73 39.45Q18.16 39.38 18.65 39.36L18.65 39.36L18.65 39.36Q19.14 39.34 19.49 39.14L19.49 39.14L19.49 39.14Q19.92 39.06 20.33 38.93L20.33 38.93L20.33 38.93Q20.74 38.79 21.21 38.59L21.21 38.59L21.21 38.59Q21.56 38.44 21.84 38.32L21.84 38.32L21.84 38.32Q22.11 38.20 22.38 38.01L22.38 38.01L22.38 38.01Q22.58 37.93 22.70 37.83L22.70 37.83L22.70 37.83Q22.81 37.73 23.01 37.66L23.01 37.66L23.01 37.66Q23.20 37.58 23.55 37.36L23.55 37.36L23.55 37.36Q23.91 37.15 24.22 36.95L24.22 36.95L24.22 36.95Q24.57 36.48 24.73 36.45L24.73 36.45L24.73 36.45Q24.88 36.41 25 36.33L25 36.33L25 36.33Q25.39 36.02 25.45 35.96L25.45 35.96L25.45 35.96Q25.51 35.90 25.47 35.74L25.47 35.74L25.47 35.74Q25.74 35.39 26.17 35.20L26.17 35.20L26.17 35.20Q26.33 34.80 26.64 34.61L26.64 34.61L26.64 34.61Q26.95 34.41 27.15 34.10L27.15 34.10L27.15 34.10Q27.34 33.79 27.60 33.55L27.60 33.55L27.60 33.55Q27.85 33.32 28.13 33.05L28.13 33.05L28.13 33.05Q28.24 32.73 28.42 32.50L28.42 32.50L28.42 32.50Q28.59 32.27 28.71 31.99L28.71 31.99L28.71 31.99Q29.14 31.56 29.36 31.00L29.36 31.00L29.36 31.00Q29.57 30.43 29.69 29.77L29.69 29.77L29.69 29.77Q30.20 29.73 30.21 29.88L30.21 29.88L30.21 29.88Q30.23 30.04 30.21 30.21L30.21 30.21L30.21 30.21Q30.20 30.39 30.14 30.57L30.14 30.57L30.14 30.57Q30.08 30.74 30.16 30.86L30.16 30.86L30.16 30.86Q29.92 31.09 29.92 31.41L29.92 31.41L29.92 31.41Q29.73 31.37 29.73 31.50L29.73 31.50L29.73 31.50Q29.73 31.64 29.57 31.68L29.57 31.68L29.57 31.68Q29.49 32.30 29.12 32.60L29.12 32.60L29.12 32.60Q28.75 32.89 28.67 33.32L28.67 33.32L28.67 33.32Q28.44 33.71 28.34 33.73L28.34 33.73L28.34 33.73Q28.24 33.75 28.09 33.79L28.09 33.79L28.09 33.79Q28.16 34.14 27.75 34.41L27.75 34.41L27.75 34.41Q27.34 34.69 27.15 35.08L27.15 35.08L27.15 35.08Q26.68 35.35 26.54 35.64L26.54 35.64L26.54 35.64Q26.41 35.94 26.05 36.05L26.05 36.05L26.05 36.05Q25.66 36.29 25.63 36.52L25.63 36.52L25.63 36.52Q25.59 36.76 25.31 36.76L25.31 36.76L25.31 36.76Q25.12 37.07 24.73 37.25L24.73 37.25L24.73 37.25Q24.34 37.42 23.98 37.58L23.98 37.58L23.98 37.58Q23.75 37.81 23.46 37.99L23.46 37.99L23.46 37.99Q23.16 38.16 22.81 38.36L22.81 38.36L22.81 38.36Q22.50 38.63 22.46 38.67L22.46 38.67L22.46 38.67Q22.42 38.71 22.34 38.79L22.34 38.79L22.34 38.79Q21.88 39.10 21.66 39.06L21.66 39.06L21.66 39.06Q21.45 39.02 21.29 39.22L21.29 39.22L21.29 39.22Q21.13 39.18 21.04 39.22L21.04 39.22L21.04 39.22Q20.94 39.26 20.84 39.34L20.84 39.34L20.84 39.34Q20.74 39.41 20.64 39.47L20.64 39.47L20.64 39.47Q20.55 39.53 20.39 39.45L20.39 39.45L20.39 39.45Q20.16 39.65 20 39.67L20 39.67L20 39.67Q19.84 39.69 19.67 39.67L19.67 39.67L19.67 39.67Q19.49 39.65 19.32 39.67L19.32 39.67L19.32 39.67Q19.14 39.69 19.06 39.80L19.06 39.80L19.06 39.80Q18.67 39.65 18.55 40.04L18.55 40.04L18.55 40.04Q17.34 40.31 16.66 40.25L16.66 40.25L16.66 40.25Q15.98 40.20 15.08 40.20L15.08 40.20L15.08 40.20Q14.73 40.12 14.43 40.06L14.43 40.06L14.43 40.06Q14.14 40 13.87 40.08L13.87 40.08L13.87 40.08Q13.44 39.88 12.85 39.94L12.85 39.94L12.85 39.94Q12.27 40 11.84 39.80L11.84 39.80L11.84 39.80Q11.64 39.73 11.46 39.59L11.46 39.59L11.46 39.59Q11.29 39.45 11.02 39.38L11.02 39.38L11.02 39.38Q10.74 39.34 10.59 39.28L10.59 39.28L10.59 39.28Q10.43 39.22 10.20 39.22L10.20 39.22L10.20 39.22Q10.04 39.18 9.94 39.12L9.94 39.12L9.94 39.12Q9.84 39.06 9.77 38.98L9.77 38.98L9.77 38.98Q9.57 38.91 9.32 38.91L9.32 38.91L9.32 38.91Q9.06 38.91 8.87 38.83L8.87 38.83L8.87 38.83Q8.63 38.75 8.46 38.67L8.46 38.67L8.46 38.67Q8.28 38.59 8.01 38.52L8.01 38.52L8.01 38.52Q7.73 38.13 7.38 38.20L7.38 38.20L7.38 38.20Q6.72 37.77 6.05 37.34L6.05 37.34L6.05 37.34Q5.39 36.91 4.84 36.45L4.84 36.45L4.84 36.45Q4.53 36.13 4.38 35.88L4.38 35.88L4.38 35.88Q4.22 35.63 3.98 35.39L3.98 35.39L3.98 35.39Q3.91 35.31 3.77 35.23L3.77 35.23L3.77 35.23Q3.63 35.16 3.67 34.96L3.67 34.96L3.67 34.96Q3.48 34.77 3.32 34.65L3.32 34.65L3.32 34.65Q3.16 34.53 3.09 34.22L3.09 34.22L3.09 34.22Q2.89 34.14 2.81 33.98L2.81 33.98L2.81 33.98Q2.73 33.83 2.68 33.63L2.68 33.63L2.68 33.63Q2.62 33.44 2.52 33.26L2.52 33.26L2.52 33.26Q2.42 33.09 2.23 33.01L2.23 33.01L2.23 33.01Q1.99 33.09 1.95 33.07L1.95 33.07L1.95 33.07Q1.91 33.05 1.80 33.09L1.80 33.09L1.80 33.09Q1.68 32.66 1.76 32.62L1.76 32.62L1.76 32.62Q1.84 32.58 1.80 32.46L1.80 32.46L1.80 32.46Q1.84 32.07 1.78 32.03L1.78 32.03L1.78 32.03Q1.72 31.99 1.64 31.91L1.64 31.91L1.64 31.91Q1.72 31.64 1.50 31.45L1.50 31.45L1.50 31.45Q1.29 31.25 1.45 31.05L1.45 31.05L1.45 31.05Q1.37 30.98 1.29 30.82L1.29 30.82L1.29 30.82Q1.21 30.66 1.33 30.59L1.33 30.59L1.33 30.59Q1.13 29.96 1.00 29.65L1.00 29.65L1.00 29.65Q0.86 29.34 0.66 28.95L0.66 28.95L0.66 28.95Q0.63 28.71 0.51 28.50L0.51 28.50L0.51 28.50Q0.39 28.28 0.47 27.97L0.47 27.97L0.47 27.97Q0.47 27.46 0.43 27.05L0.43 27.05L0.43 27.05Q0.39 26.64 0.51 26.13L0.51 26.13L0.51 26.13Q0.59 25.82 0.47 25.55L0.47 25.55L0.47 25.55Q0.35 25.27 0.55 25.16L0.55 25.16L0.55 25.16Q0.59 24.88 0.53 24.84L0.53 24.84L0.53 24.84Q0.47 24.80 0.47 24.73L0.47 24.73L0.47 24.73Q0.55 24.34 0.51 24.24L0.51 24.24L0.51 24.24Q0.47 24.14 0.55 24.06L0.55 24.06L0.55 24.06Q0.55 23.59 0.59 23.46L0.59 23.46L0.59 23.46Q0.63 23.32 0.74 23.24L0.74 23.24L0.74 23.24Q0.59 23.05 0.68 22.77L0.68 22.77L0.68 22.77Q0.78 22.50 0.70 22.34L0.70 22.34L0.70 22.34Q0.98 22.07 0.98 21.66L0.98 21.66L0.98 21.66Q0.98 21.25 1.13 20.78L1.13 20.78L1.13 20.78Q1.37 20.43 1.37 20.33L1.37 20.33L1.37 20.33Q1.37 20.23 1.45 20.23L1.45 20.23L1.45 20.23Q1.41 19.92 1.46 19.82L1.46 19.82L1.46 19.82Q1.52 19.73 1.64 19.53L1.64 19.53L1.64 19.53Q1.68 19.14 1.78 18.75L1.78 18.75L1.78 18.75Q1.88 18.36 2.19 18.16L2.19 18.16L2.19 18.16Q2.30 17.85 2.54 17.81L2.54 17.81L2.54 17.81Q2.66 17.46 2.70 17.42L2.70 17.42L2.70 17.42Q2.73 17.38 2.81 17.42L2.81 17.42L2.81 17.42Q2.85 17.15 2.87 16.99L2.87 16.99L2.87 16.99Q2.89 16.84 2.77 16.88L2.77 16.88L2.77 16.88Q3.16 16.68 3.22 16.56L3.22 16.56L3.22 16.56Q3.28 16.45 3.44 16.41L3.44 16.41L3.44 16.41Q3.55 16.05 3.44 15.86L3.44 15.86L3.44 15.86Q3.71 15.66 3.77 15.64L3.77 15.64L3.77 15.64Q3.83 15.63 3.91 15.59L3.91 15.59L3.91 15.59Q4.02 15.35 4.26 15.27L4.26 15.27L4.26 15.27Q4.41 14.84 4.53 14.73L4.53 14.73L4.53 14.73Q4.65 14.61 4.69 14.41L4.69 14.41L4.69 14.41Q4.96 14.49 4.98 14.26L4.98 14.26L4.98 14.26Q5 14.02 5.23 14.06L5.23 14.06L5.23 14.06Q5.47 13.91 5.53 13.75L5.53 13.75L5.53 13.75Q5.59 13.59 5.78 13.67L5.78 13.67L5.78 13.67Q5.70 13.44 5.90 13.26L5.90 13.26L5.90 13.26Q6.09 13.09 6.29 13.16L6.29 13.16L6.29 13.16Q6.56 12.73 6.50 12.73L6.50 12.73L6.50 12.73Q6.45 12.73 6.48 12.66L6.48 12.66L6.48 12.66Q6.91 12.50 6.93 12.36L6.93 12.36L6.93 12.36Q6.95 12.23 7.03 12.15L7.03 12.15L7.03 12.15Q7.46 11.68 8.01 11.76L8.01 11.76L8.01 11.76Q7.97 11.48 8.16 11.46L8.16 11.46L8.16 11.46Q8.36 11.45 8.32 11.21L8.32 11.21L8.32 11.21Q8.55 11.09 8.77 11.07L8.77 11.07L8.77 11.07Q8.98 11.05 9.06 10.82L9.06 10.82L9.06 10.82Q9.26 10.90 9.34 10.78L9.34 10.78L9.34 10.78Q9.41 10.66 9.61 10.66L9.61 10.66L9.61 10.66Q9.84 10.43 10.16 10.25L10.16 10.25L10.16 10.25Q10.47 10.08 10.74 10.16L10.74 10.16L10.74 10.16Q10.90 10.04 11.11 9.98L11.11 9.98L11.11 9.98Q11.33 9.92 11.29 9.73L11.29 9.73L11.29 9.73Q11.48 9.77 11.56 9.71L11.56 9.71L11.56 9.71Q11.64 9.65 11.72 9.57L11.72 9.57L11.72 9.57Q12.27 9.53 12.19 9.38L12.19 9.38L12.19 9.38Q12.70 9.41 12.91 9.43L12.91 9.43L12.91 9.43Q13.13 9.45 13.28 9.38L13.28 9.38L13.28 9.38Q13.20 9.26 13.03 9.30L13.03 9.30L13.03 9.30Q12.85 9.34 12.77 9.34L12.77 9.34L12.77 9.34Q13.01 9.10 13.07 9.04L13.07 9.04L13.07 9.04Q13.13 8.98 13.24 8.98L13.24 8.98L13.24 8.98Q13.52 9.14 13.71 9.04L13.71 9.04L13.71 9.04Q13.91 8.95 13.91 8.83L13.91 8.83L13.91 8.83Q14.06 8.87 14.28 8.79L14.28 8.79L14.28 8.79Q14.49 8.71 14.61 8.83L14.61 8.83L14.61 8.83Q14.73 8.55 14.98 8.59L14.98 8.59L14.98 8.59Q15.23 8.63 15.43 8.75L15.43 8.75L15.43 8.75Q15.74 8.44 15.94 8.50L15.94 8.50L15.94 8.50Q16.13 8.55 16.25 8.44L16.25 8.44L16.25 8.44Q16.68 8.44 16.82 8.46L16.82 8.46L16.82 8.46Q16.95 8.48 16.88 8.36L16.88 8.36L16.88 8.36Q17.23 8.48 17.25 8.50L17.25 8.50L17.25 8.50Q17.27 8.52 17.34 8.55L17.34 8.55L17.34 8.55Q17.46 8.48 17.64 8.46L17.64 8.46L17.64 8.46Q17.81 8.44 18.01 8.36L18.01 8.36L18.01 8.36Q18.40 8.32 18.75 8.67L18.75 8.67L18.75 8.67Q18.87 8.55 19.14 8.71L19.14 8.71L19.14 8.71Q19.41 8.87 19.80 8.98L19.80 8.98L19.80 8.98Q20 9.06 20.12 9.06L20.12 9.06L20.12 9.06Q20.23 9.06 20.35 9.14L20.35 9.14L20.35 9.14Q20.43 9.18 20.59 9.16L20.59 9.16L20.59 9.16Q20.74 9.14 20.94 9.14L20.94 9.14L20.94 9.14Q21.17 9.38 21.64 9.51L21.64 9.51L21.64 9.51Q22.11 9.65 22.54 9.80L22.54 9.80L22.54 9.80Q22.85 10.27 23.03 10.23L23.03 10.23L23.03 10.23Q23.20 10.20 23.40 10.27L23.40 10.27L23.40 10.27Q23.79 10.51 24.02 10.84L24.02 10.84L24.02 10.84Q24.26 11.17 24.69 11.25L24.69 11.25L24.69 11.25Q25 11.45 25.27 11.64L25.27 11.64L25.27 11.64Q25.59 11.88 25.82 12.17L25.82 12.17L25.82 12.17Q26.05 12.46 26.45 12.58L26.45 12.58L26.45 12.58Q26.60 12.89 26.99 13.09L26.99 13.09L26.99 13.09Q27.07 13.40 27.34 13.54L27.34 13.54L27.34 13.54Q27.62 13.67 27.73 13.98L27.73 13.98L27.73 13.98Q27.97 14.10 28.05 14.20L28.05 14.20L28.05 14.20Q28.13 14.30 28.28 14.41L28.28 14.41L28.28 14.41Q28.71 14.69 28.69 14.82L28.69 14.82L28.69 14.82Q28.67 14.96 28.55 14.88L28.55 14.88L28.55 14.88Q28.83 15.31 28.83 15.41L28.83 15.41L28.83 15.41Q28.83 15.51 28.95 15.51L28.95 15.51L28.95 15.51Q29.06 15.82 29.02 15.98L29.02 15.98L29.02 15.98Q28.98 16.13 29.26 16.13L29.26 16.13L29.26 16.13Q29.22 16.41 29.38 16.60L29.38 16.60L29.38 16.60Q29.53 16.80 29.45 16.99L29.45 16.99L29.45 16.99Q29.53 17.07 29.79 17.19L29.79 17.19L29.79 17.19Q30.04 17.30 29.80 17.50L29.80 17.50L29.80 17.50Q29.84 17.85 29.82 17.99L29.82 17.99L29.82 17.99Q29.80 18.13 29.96 18.05L29.96 18.05L29.96 18.05Q30.20 18.55 30.21 18.85L30.21 18.85L30.21 18.85Q30.23 19.14 30.35 19.34L30.35 19.34L30.35 19.34Q30.27 19.65 30.39 20.02L30.39 20.02L30.39 20.02Q30.51 20.39 30.23 20.66L30.23 20.66ZM27.85 14.45L27.85 14.45L27.85 14.45Q27.73 14.38 27.58 14.39L27.58 14.39L27.58 14.39Q27.42 14.41 27.34 14.34L27.34 14.34L27.34 14.34Q26.99 14.02 26.89 13.77L26.89 13.77L26.89 13.77Q26.80 13.52 26.56 13.55L26.56 13.55L26.56 13.55Q26.76 13.63 26.78 13.83L26.78 13.83L26.78 13.83Q26.80 14.02 26.72 14.10L26.72 14.10L26.72 14.10Q26.80 14.30 26.91 14.38L26.91 14.38L26.91 14.38Q27.03 14.45 27.30 14.38L27.30 14.38L27.30 14.38Q27.38 14.77 27.29 14.84L27.29 14.84L27.29 14.84Q27.19 14.92 27.15 15.12L27.15 15.12L27.15 15.12Q27.30 15.08 27.36 15.10L27.36 15.10L27.36 15.10Q27.42 15.12 27.58 15.16L27.58 15.16L27.58 15.16Q27.66 14.92 27.79 14.80L27.79 14.80L27.79 14.80Q27.93 14.69 27.85 14.45ZM28.48 16.05L28.48 16.05L28.48 16.05Q28.44 16.21 28.32 16.27L28.32 16.27L28.32 16.27Q28.20 16.33 28.13 16.45L28.13 16.45L28.13 16.45Q28.20 16.56 28.34 16.52L28.34 16.52L28.34 16.52Q28.48 16.48 28.55 16.39L28.55 16.39L28.55 16.39Q28.63 16.29 28.63 16.19L28.63 16.19L28.63 16.19Q28.63 16.09 28.48 16.05ZM28.95 17.38L28.95 17.54L28.95 17.54Q29.02 17.42 29.08 17.25L29.08 17.25L29.08 17.25Q29.14 17.07 28.95 16.99L28.95 16.99L28.95 16.99Q28.83 17.15 28.61 17.30L28.61 17.30L28.61 17.30Q28.40 17.46 28.44 17.66L28.44 17.66L28.44 17.66Q28.83 17.38 28.95 17.38L28.95 17.38ZM29.49 18.48L29.49 18.48L29.49 18.48Q29.45 18.28 29.45 18.14L29.45 18.14L29.45 18.14Q29.45 18.01 29.34 18.01L29.34 18.01L29.34 18.01Q28.98 18.13 28.95 18.30L28.95 18.30L28.95 18.30Q28.91 18.48 28.71 18.55L28.71 18.55L28.71 18.55Q29.22 18.75 29.26 18.59L29.26 18.59L29.26 18.59Q29.30 18.44 29.49 18.48ZM29.80 19.61L29.80 19.61L29.80 19.61Q29.80 19.45 29.79 19.36L29.79 19.36L29.79 19.36Q29.77 19.26 29.77 19.14L29.77 19.14L29.77 19.14Q29.57 19.22 29.45 19.28L29.45 19.28L29.45 19.28Q29.34 19.34 29.14 19.41L29.14 19.41L29.14 19.41Q28.71 19.26 28.63 19.45L28.63 19.45L28.63 19.45Q28.98 19.41 29.10 19.41L29.10 19.41L29.10 19.41Q29.22 19.41 29.26 19.49L29.26 19.49L29.26 19.49Q29.14 19.57 29.04 19.71L29.04 19.71L29.04 19.71Q28.95 19.84 28.79 19.77L28.79 19.77L28.79 19.77Q29.18 20.08 29.22 19.96L29.22 19.96L29.22 19.96Q29.26 19.84 29.41 19.84L29.41 19.84L29.41 19.84Q29.61 19.96 29.59 19.80L29.59 19.80L29.59 19.80Q29.57 19.65 29.80 19.61ZM29.96 20.12L29.96 20.12L29.96 20.12Q29.53 20.31 29.57 20.39L29.57 20.39L29.57 20.39Q29.61 20.47 29.53 20.51L29.53 20.51L29.53 20.51Q29.38 20.43 29.39 20.27L29.39 20.27L29.39 20.27Q29.41 20.12 29.30 20.04L29.30 20.04L29.30 20.04Q29.10 20.43 28.87 20.35L28.87 20.35L28.87 20.35Q29.06 20.70 29.10 20.72L29.10 20.72L29.10 20.72Q29.14 20.74 29.30 20.74L29.30 20.74L29.30 20.74Q29.30 20.98 29.51 20.90L29.51 20.90L29.51 20.90Q29.73 20.82 29.92 20.74L29.92 20.74L29.92 20.74Q29.73 20.63 29.82 20.43L29.82 20.43L29.82 20.43Q29.92 20.23 29.96 20.12ZM28.91 21.17L28.91 21.17L28.91 21.17Q28.83 21.05 28.87 21.00L28.87 21.00L28.87 21.00Q28.91 20.94 28.91 20.74L28.91 20.74L28.91 20.74Q28.63 20.63 28.59 20.68L28.59 20.68L28.59 20.68Q28.55 20.74 28.48 20.74L28.48 20.74L28.48 20.74Q28.55 20.82 28.48 20.94L28.48 20.94L28.48 20.94Q28.40 21.05 28.48 21.17L28.48 21.17L28.48 21.17Q28.55 21.09 28.65 21.15L28.65 21.15L28.65 21.15Q28.75 21.21 28.91 21.17ZM29.65 21.52L29.65 21.52L29.65 21.52Q29.41 21.72 29.30 21.66L29.30 21.66L29.30 21.66Q29.18 21.60 29.10 21.41L29.10 21.41L29.10 21.41Q29.30 21.17 29.22 21.25L29.22 21.25L29.22 21.25Q29.14 21.33 29.06 21.45L29.06 21.45L29.06 21.45Q28.98 21.56 28.89 21.64L28.89 21.64L28.89 21.64Q28.79 21.72 28.67 21.68L28.67 21.68L28.67 21.68Q28.71 22.03 28.85 22.03L28.85 22.03L28.85 22.03Q28.98 22.03 29.14 22.11L29.14 22.11L29.14 22.11Q28.71 22.23 28.67 22.38L28.67 22.38L28.67 22.38Q28.79 22.54 28.91 22.56L28.91 22.56L28.91 22.56Q29.02 22.58 29.10 22.66L29.10 22.66L29.10 22.66Q29.26 22.50 29.34 22.38L29.34 22.38L29.34 22.38Q29.41 22.27 29.53 22.15L29.53 22.15L29.53 22.15Q29.65 22.03 29.73 21.88L29.73 21.88L29.73 21.88Q29.80 21.72 29.65 21.52ZM21.99 17.03L21.99 17.03L21.99 17.03Q21.72 16.99 21.66 17.13L21.66 17.13L21.66 17.13Q21.60 17.27 21.68 17.34L21.68 17.34L21.68 17.34Q21.76 17.27 21.86 17.23L21.86 17.23L21.86 17.23Q21.95 17.19 21.99 17.03ZM21.84 17.42L21.84 17.42L21.84 17.42Q21.64 17.50 21.58 17.42L21.58 17.42L21.58 17.42Q21.52 17.34 21.41 17.30L21.41 17.30L21.41 17.30Q20.98 17.62 20.78 17.85L20.78 17.85L20.78 17.85Q20.59 18.09 20.27 18.09L20.27 18.09L20.27 18.09Q20.16 18.48 19.84 18.48L19.84 18.48L19.84 18.48Q19.80 18.63 19.67 18.73L19.67 18.73L19.67 18.73Q19.53 18.83 19.38 18.91L19.38 18.91L19.38 18.91Q19.22 18.98 19.10 19.08L19.10 19.08L19.10 19.08Q18.98 19.18 18.98 19.34L18.98 19.34L18.98 19.34Q19.34 19.18 19.30 19.14L19.30 19.14L19.30 19.14Q19.26 19.10 19.34 19.06L19.34 19.06L19.34 19.06Q19.41 19.10 19.57 19.08L19.57 19.08L19.57 19.08Q19.73 19.06 19.77 18.95L19.77 18.95L19.77 18.95Q19.84 18.91 20.08 18.69L20.08 18.69L20.08 18.69Q20.31 18.48 20.66 18.40L20.66 18.40L20.66 18.40Q20.74 18.05 21.17 17.89L21.17 17.89L21.17 17.89Q21.60 17.73 21.84 17.42ZM21.45 18.36L21.45 18.36L21.45 18.36Q21.29 18.32 21.17 18.44L21.17 18.44L21.17 18.44Q21.05 18.55 20.98 18.67L20.98 18.67L20.98 18.67Q20.55 18.75 20.31 18.96L20.31 18.96L20.31 18.96Q20.08 19.18 19.84 19.41L19.84 19.41L19.84 19.41Q20.16 19.41 20.31 19.28L20.31 19.28L20.31 19.28Q20.47 19.14 20.74 19.14L20.74 19.14L20.74 19.14Q20.94 19.18 20.94 19.34L20.94 19.34L20.94 19.34Q20.94 19.49 21.13 19.49L21.13 19.49L21.13 19.49Q21.21 19.30 21.31 19.02L21.31 19.02L21.31 19.02Q21.41 18.75 21.45 18.36ZM20.43 17.46L20.43 17.46L20.43 17.46Q20.16 17.07 19.79 17.30L19.79 17.30L19.79 17.30Q19.41 17.54 19.06 17.70L19.06 17.70L19.06 17.70Q19.06 18.20 18.79 18.67L18.79 18.67L18.79 18.67Q19.14 18.75 19.28 18.54L19.28 18.54L19.28 18.54Q19.41 18.32 19.69 18.24L19.69 18.24L19.69 18.24Q19.80 17.97 20.08 17.87L20.08 17.87L20.08 17.87Q20.35 17.77 20.43 17.46ZM29.45 23.44L29.45 23.44L29.45 23.44Q29.38 23.20 29.18 23.30L29.18 23.30L29.18 23.30Q28.98 23.40 28.91 23.20L28.91 23.20L28.91 23.20Q28.79 23.40 28.77 23.48L28.77 23.48L28.77 23.48Q28.75 23.55 28.63 23.55L28.63 23.55L28.63 23.55Q28.44 23.59 28.32 23.59L28.32 23.59L28.32 23.59Q28.20 23.59 28.05 23.52L28.05 23.52L28.05 23.52Q28.20 23.91 28.03 23.87L28.03 23.87L28.03 23.87Q27.85 23.83 27.85 24.02L27.85 24.02L27.85 24.02Q27.93 24.30 27.85 24.45L27.85 24.45L27.85 24.45Q28.01 24.41 28.16 24.36L28.16 24.36L28.16 24.36Q28.32 24.30 28.44 24.41L28.44 24.41L28.44 24.41Q28.36 24.80 28.36 24.84L28.36 24.84L28.36 24.84Q28.36 24.88 28.28 24.96L28.28 24.96L28.28 24.96Q27.97 25.31 27.89 25.27L27.89 25.27L27.89 25.27Q27.54 25.47 27.52 25.70L27.52 25.70L27.52 25.70Q27.50 25.94 27.19 25.98L27.19 25.98L27.19 25.98Q26.91 26.33 26.97 26.35L26.97 26.35L26.97 26.35Q27.03 26.37 27.03 26.41L27.03 26.41L27.03 26.41Q26.88 26.60 26.84 26.70L26.84 26.70L26.84 26.70Q26.80 26.80 26.76 26.88L26.76 26.88L26.76 26.88Q26.72 26.95 26.70 27.03L26.70 27.03L26.70 27.03Q26.68 27.11 26.76 27.19L26.76 27.19L26.76 27.19Q26.76 27.58 26.86 27.60L26.86 27.60L26.86 27.60Q26.95 27.62 26.91 27.73L26.91 27.73L26.91 27.73Q26.56 27.81 26.48 27.99L26.48 27.99L26.48 27.99Q26.41 28.16 26.17 28.24L26.17 28.24L26.17 28.24Q25.98 28.48 26.02 28.55L26.02 28.55L26.02 28.55Q26.05 28.63 25.98 28.67L25.98 28.67L25.98 28.67Q25.63 28.79 25.57 29.02L25.57 29.02L25.57 29.02Q25.51 29.26 25.31 29.22L25.31 29.22L25.31 29.22Q25.31 29.53 25.06 29.63L25.06 29.63L25.06 29.63Q24.80 29.73 24.84 29.96L24.84 29.96L24.84 29.96Q25.12 29.69 25.39 29.65L25.39 29.65L25.39 29.65Q25.55 29.45 25.74 29.24L25.74 29.24L25.74 29.24Q25.94 29.02 26.21 29.06L26.21 29.06L26.21 29.06Q26.37 28.75 26.58 28.50L26.58 28.50L26.58 28.50Q26.80 28.24 26.99 28.05L26.99 28.05L26.99 28.05Q27.70 27.46 27.85 26.56L27.85 26.56L27.85 26.56Q28.24 26.29 28.24 26.09L28.24 26.09L28.24 26.09Q27.97 25.90 28.09 25.82L28.09 25.82L28.09 25.82Q28.20 25.74 28.28 25.63L28.28 25.63L28.28 25.63Q28.32 25.23 28.38 25.18L28.38 25.18L28.38 25.18Q28.44 25.12 28.48 25L28.48 25L28.48 25Q28.75 24.88 28.81 24.82L28.81 24.82L28.81 24.82Q28.87 24.77 28.79 24.65L28.79 24.65L28.79 24.65Q29.02 24.65 28.98 24.38L28.98 24.38L28.98 24.38Q28.95 24.10 29.14 24.06L29.14 24.06L29.14 24.06Q29.22 23.87 29.06 23.79L29.06 23.79L29.06 23.79Q28.91 23.71 28.79 23.71L28.79 23.71L28.79 23.71Q29.18 23.48 29.45 23.44ZM21.02 20.20L21.17 19.84L21.17 19.84Q20.90 19.73 20.88 19.86L20.88 19.86L20.88 19.86Q20.86 20 20.66 19.88L20.66 19.88L20.66 19.88Q20.55 20.20 20.29 20.39L20.29 20.39L20.29 20.39Q20.04 20.59 19.84 20.90L19.84 20.90L19.84 20.90Q19.69 21.05 19.65 21.13L19.65 21.13L19.65 21.13Q19.61 21.21 19.69 21.33L19.69 21.33L19.69 21.33Q20.47 20.86 21.02 20.20L21.02 20.20ZM16.56 16.02L16.56 16.02L16.56 16.02Q16.45 15.82 16.23 15.88L16.23 15.88L16.23 15.88Q16.02 15.94 15.74 15.98L15.74 15.98L15.74 15.98Q15.27 16.02 14.77 16.04L14.77 16.04L14.77 16.04Q14.26 16.05 14.30 16.52L14.30 16.52L14.30 16.52Q14.38 16.45 14.51 16.41L14.51 16.41L14.51 16.41Q14.65 16.37 14.80 16.29L14.80 16.29L14.80 16.29Q15.39 16.29 15.82 16.21L15.82 16.21L15.82 16.21Q16.25 16.13 16.56 16.02ZM19.92 21.72L19.92 21.72L19.92 21.72Q19.65 21.72 19.43 21.95L19.43 21.95L19.43 21.95Q19.22 22.19 18.98 22.38L18.98 22.38L18.98 22.38Q19.30 22.27 19.49 22.07L19.49 22.07L19.49 22.07Q19.69 21.88 19.92 21.72ZM20.27 19.73L20.27 19.73L20.27 19.73Q19.77 20 19.36 20.33L19.36 20.33L19.36 20.33Q18.95 20.66 18.44 20.94L18.44 20.94L18.44 20.94Q18.16 21.29 18.01 21.41L18.01 21.41L18.01 21.41Q17.85 21.52 17.97 21.76L17.97 21.76L17.97 21.76Q17.85 21.80 17.85 21.93L17.85 21.93L17.85 21.93Q17.85 22.07 17.73 22.15L17.73 22.15L17.73 22.15Q17.81 22.30 17.75 22.48L17.75 22.48L17.75 22.48Q17.70 22.66 17.62 22.85L17.62 22.85L17.62 22.85Q17.70 23.09 17.54 23.28L17.54 23.28L17.54 23.28Q17.38 23.48 17.58 23.71L17.58 23.71L17.58 23.71Q17.89 23.52 18.13 23.24L18.13 23.24L18.13 23.24Q18.36 22.97 18.63 22.73L18.63 22.73L18.63 22.73Q18.40 22.77 18.20 22.83L18.20 22.83L18.20 22.83Q18.01 22.89 17.81 22.73L17.81 22.73L17.81 22.73Q18.09 22.11 18.55 21.70L18.55 21.70L18.55 21.70Q19.02 21.29 19.45 20.78L19.45 20.78L19.45 20.78Q19.49 20.59 19.59 20.53L19.59 20.53L19.59 20.53Q19.69 20.47 19.84 20.39L19.84 20.39L19.84 20.39Q19.92 20.20 20.06 20.08L20.06 20.08L20.06 20.08Q20.20 19.96 20.27 19.73ZM20.12 22.38L20.12 22.38L20.12 22.38Q19.84 22.19 19.79 22.40L19.79 22.40L19.79 22.40Q19.73 22.62 19.49 22.50L19.49 22.50L19.49 22.50Q19.53 22.70 19.38 22.73L19.38 22.73L19.38 22.73Q19.22 22.77 19.22 22.97L19.22 22.97L19.22 22.97Q19.45 22.77 19.77 22.77L19.77 22.77L19.77 22.77Q19.80 22.58 19.92 22.56L19.92 22.56L19.92 22.56Q20.04 22.54 20.12 22.38ZM19.22 23.48L19.30 23.24L19.30 23.24Q18.52 23.24 18.40 23.63L18.40 23.63L18.40 23.63Q18.67 23.63 18.79 23.52L18.79 23.52L18.79 23.52Q18.91 23.40 19.22 23.48L19.22 23.48ZM14.22 16.52L14.22 16.52L14.22 16.52Q13.52 16.88 13.26 17.07L13.26 17.07L13.26 17.07Q13.01 17.27 12.70 17.46L12.70 17.46L12.70 17.46Q12.30 17.85 12.13 18.16L12.13 18.16L12.13 18.16Q11.95 18.48 11.56 18.59L11.56 18.59L11.56 18.59Q11.37 18.95 11.07 19.18L11.07 19.18L11.07 19.18Q10.78 19.41 10.59 19.84L10.59 19.84L10.59 19.84Q10.98 19.92 11.15 19.67L11.15 19.67L11.15 19.67Q11.33 19.41 11.68 19.41L11.68 19.41L11.68 19.41Q11.72 19.02 11.70 18.93L11.70 18.93L11.70 18.93Q11.68 18.83 11.64 18.75L11.64 18.75L11.64 18.75Q12.03 18.52 12.32 18.52L12.32 18.52L12.32 18.52Q12.62 18.52 12.70 18.44L12.70 18.44L12.70 18.44Q12.70 18.13 12.89 18.01L12.89 18.01L12.89 18.01Q13.09 17.89 13.20 17.77L13.20 17.77L13.20 17.77Q13.40 17.58 13.50 17.36L13.50 17.36L13.50 17.36Q13.59 17.15 13.79 17.15L13.79 17.15L13.79 17.15Q13.79 16.91 13.96 16.86L13.96 16.86L13.96 16.86Q14.14 16.80 14.22 16.52ZM19.45 23.98L19.45 23.98L19.45 23.98Q18.91 24.30 18.75 24.51L18.75 24.51L18.75 24.51Q18.59 24.73 18.28 24.80L18.28 24.80L18.28 24.80Q18.28 25.08 18.09 25.12L18.09 25.12L18.09 25.12Q17.89 25.16 17.85 25.39L17.85 25.39L17.85 25.39Q17.73 25.47 17.54 25.41L17.54 25.41L17.54 25.41Q17.34 25.35 17.27 25.23L17.27 25.23L17.27 25.23Q17.07 25.43 16.93 25.70L16.93 25.70L16.93 25.70Q16.80 25.98 16.80 26.29L16.80 26.29L16.80 26.29Q17.19 26.05 17.40 25.98L17.40 25.98L17.40 25.98Q17.62 25.90 17.77 25.70L17.77 25.70L17.77 25.70Q18.13 25.63 18.32 25.41L18.32 25.41L18.32 25.41Q18.52 25.20 18.98 25.27L18.98 25.27L18.98 25.27Q19.26 24.96 19.32 24.67L19.32 24.67L19.32 24.67Q19.38 24.38 19.45 23.98ZM18.95 26.21L18.95 26.21L18.95 26.21Q18.48 26.29 18.50 26.35L18.50 26.35L18.50 26.35Q18.52 26.41 18.48 26.48L18.48 26.48L18.48 26.48Q18.28 26.56 18.18 26.58L18.18 26.58L18.18 26.58Q18.09 26.60 17.97 26.76L17.97 26.76L17.97 26.76Q18.16 26.91 18.28 26.72L18.28 26.72L18.28 26.72Q18.40 26.52 18.59 26.72L18.59 26.72L18.59 26.72Q18.83 26.37 18.89 26.33L18.89 26.33L18.89 26.33Q18.95 26.29 18.95 26.21ZM18.16 26.21L18.24 26.29L18.24 26.29Q18.05 26.05 17.95 26.17L17.95 26.17L17.95 26.17Q17.85 26.29 17.73 26.41L17.73 26.41L17.73 26.41Q17.93 26.29 18.01 26.27L18.01 26.27L18.01 26.27Q18.09 26.25 18.16 26.21L18.16 26.21ZM11.33 20.63L11.33 20.63L11.33 20.63Q11.02 20.66 10.80 20.82L10.80 20.82L10.80 20.82Q10.59 20.98 10.39 21.17L10.39 21.17L10.39 21.17Q10.70 20.94 10.80 20.98L10.80 20.98L10.80 20.98Q10.90 21.02 11.02 20.98L11.02 20.98L11.02 20.98Q11.17 20.74 11.23 20.72L11.23 20.72L11.23 20.72Q11.29 20.70 11.33 20.63ZM18.44 28.20L18.48 27.85L18.48 27.85Q18.28 28.05 17.85 28.20L17.85 28.20L17.85 28.20Q17.66 28.71 17.83 28.59L17.83 28.59L17.83 28.59Q18.01 28.48 18.13 28.55L18.13 28.55L18.13 28.55Q18.13 28.36 18.24 28.34L18.24 28.34L18.24 28.34Q18.36 28.32 18.44 28.20L18.44 28.20ZM11.64 21.33L11.64 21.33L11.64 21.33Q11.52 21.41 11.43 21.43L11.43 21.43L11.43 21.43Q11.33 21.45 11.17 21.52L11.17 21.52L11.17 21.52Q11.25 21.80 11.33 21.80L11.33 21.80L11.33 21.80Q11.41 21.80 11.52 21.84L11.52 21.84L11.52 21.84Q11.56 21.72 11.64 21.58L11.64 21.58L11.64 21.58Q11.72 21.45 11.64 21.33ZM18.01 18.71L18.16 18.59L18.16 18.59Q18.16 18.09 18.14 17.79L18.14 17.79L18.14 17.79Q18.13 17.50 18.09 17.07L18.09 17.07L18.09 17.07Q17.66 16.48 17.07 16.62L17.07 16.62L17.07 16.62Q16.48 16.76 15.94 16.80L15.94 16.80L15.94 16.80Q15.98 16.95 15.76 16.93L15.76 16.93L15.76 16.93Q15.55 16.91 15.39 16.99L15.39 16.99L15.39 16.99Q14.96 17.23 14.82 17.27L14.82 17.27L14.82 17.27Q14.69 17.30 14.65 17.50L14.65 17.50L14.65 17.50Q14.49 17.93 14.20 18.20L14.20 18.20L14.20 18.20Q13.91 18.48 13.59 18.75L13.59 18.75L13.59 18.75Q13.63 19.10 13.71 19.10L13.71 19.10L13.71 19.10Q13.79 19.10 13.79 19.18L13.79 19.18L13.79 19.18Q13.63 19.41 13.32 19.57L13.32 19.57L13.32 19.57Q13.01 19.73 12.93 20L12.93 20L12.93 20Q12.77 20.43 12.56 20.90L12.56 20.90L12.56 20.90Q12.34 21.37 12.23 21.80L12.23 21.80L12.23 21.80Q12.07 22.11 11.93 22.42L11.93 22.42L11.93 22.42Q11.80 22.73 11.60 22.97L11.60 22.97L11.60 22.97Q11.68 23.40 11.48 23.71L11.48 23.71L11.48 23.71Q11.29 24.02 11.21 24.45L11.21 24.45L11.21 24.45Q11.25 24.92 11.17 25.06L11.17 25.06L11.17 25.06Q11.09 25.20 11.02 25.31L11.02 25.31L11.02 25.31Q10.98 25.90 10.72 26.60L10.72 26.60L10.72 26.60Q10.47 27.30 10.27 28.01L10.27 28.01L10.27 28.01Q10.31 28.24 10.39 28.48L10.39 28.48L10.39 28.48Q10.08 28.79 10.10 29.30L10.10 29.30L10.10 29.30Q10.12 29.80 10.04 30.27L10.04 30.27L10.04 30.27Q10.12 30.47 10.21 30.66L10.21 30.66L10.21 30.66Q10.31 30.86 10.35 31.13L10.35 31.13L10.35 31.13Q10.66 31.41 11.00 31.72L11.00 31.72L11.00 31.72Q11.33 32.03 11.80 32.03L11.80 32.03L11.80 32.03Q12.46 32.03 12.97 31.60L12.97 31.60L12.97 31.60Q13.48 31.17 13.91 30.90L13.91 30.90L13.91 30.90Q14.53 30.16 14.98 29.69L14.98 29.69L14.98 29.69Q15.43 29.22 15.63 28.52L15.63 28.52L15.63 28.52Q15.94 28.09 15.98 27.89L15.98 27.89L15.98 27.89Q16.02 27.70 16.13 27.50L16.13 27.50L16.13 27.50Q16.13 26.80 16.19 26.23L16.19 26.23L16.19 26.23Q16.25 25.66 16.48 25.20L16.48 25.20L16.48 25.20Q16.64 24.45 16.80 23.81L16.80 23.81L16.80 23.81Q16.95 23.16 17.15 22.58L17.15 22.58L17.15 22.58Q17.03 22.34 17.21 22.15L17.21 22.15L17.21 22.15Q17.38 21.95 17.30 21.56L17.30 21.56L17.30 21.56Q17.50 21.33 17.52 21.07L17.52 21.07L17.52 21.07Q17.54 20.82 17.77 20.63L17.77 20.63L17.77 20.63Q17.70 20.35 17.77 20L17.77 20L17.77 20Q17.85 19.65 18.05 19.49L18.05 19.49L18.05 19.49Q17.93 19.22 18.05 19.08L18.05 19.08L18.05 19.08Q18.16 18.95 18.01 18.71L18.01 18.71ZM18.63 26.99L18.63 26.99L18.63 26.99Q18.20 27.07 18.13 27.03L18.13 27.03L18.13 27.03Q18.05 26.99 17.97 27.15L17.97 27.15L17.97 27.15Q17.97 27.23 17.85 27.44L17.85 27.44L17.85 27.44Q17.73 27.66 17.34 27.62L17.34 27.62L17.34 27.62Q17.27 27.85 17.07 27.93L17.07 27.93L17.07 27.93Q16.88 28.01 16.68 28.13L16.68 28.13L16.68 28.13Q16.48 28.83 16.56 29.38L16.56 29.38L16.56 29.38Q16.72 29.53 16.74 29.67L16.74 29.67L16.74 29.67Q16.76 29.80 16.84 29.84L16.84 29.84L16.84 29.84Q17.27 29.73 17.25 29.79L17.25 29.79L17.25 29.79Q17.23 29.84 17.30 29.80L17.30 29.80L17.30 29.80Q17.27 29.45 17.34 29.38L17.34 29.38L17.34 29.38Q17.66 29.61 17.46 29.80L17.46 29.80L17.46 29.80Q17.66 29.96 17.91 29.90L17.91 29.90L17.91 29.90Q18.16 29.84 18.40 29.77L18.40 29.77L18.40 29.77Q18.32 29.53 18.42 29.38L18.42 29.38L18.42 29.38Q18.52 29.22 18.36 29.02L18.36 29.02L18.36 29.02Q17.93 29.26 17.89 29.18L17.89 29.18L17.89 29.18Q17.85 29.10 17.85 29.18L17.85 29.18L17.85 29.18Q17.50 29.22 17.23 29.22L17.23 29.22L17.23 29.22Q16.91 28.87 16.99 28.79L16.99 28.79L16.99 28.79Q17.07 28.71 17.11 28.55L17.11 28.55L17.11 28.55Q17.50 28.05 17.97 27.77L17.97 27.77L17.97 27.77Q18.32 27.54 18.44 27.36L18.44 27.36L18.44 27.36Q18.55 27.19 18.63 26.99ZM11.33 22.46L11.33 22.46L11.33 22.46Q11.02 22.34 10.84 22.54L10.84 22.54L10.84 22.54Q10.66 22.73 10.47 22.66L10.47 22.66L10.47 22.66Q10.12 22.89 10.16 22.91L10.16 22.91L10.16 22.91Q10.20 22.93 10.16 23.01L10.16 23.01L10.16 23.01Q10.51 23.05 10.70 22.97L10.70 22.97L10.70 22.97Q10.90 22.89 10.98 22.97L10.98 22.97L10.98 22.97Q11.13 22.62 11.33 22.46ZM18.28 30.43L18.28 30.43L18.28 30.43Q17.73 30.43 17.73 30.72L17.73 30.72L17.73 30.72Q17.73 31.02 17.89 31.09L17.89 31.09L17.89 31.09Q18.05 30.78 18.28 30.43ZM8.91 23.32L8.91 23.32L8.91 23.32Q8.75 23.40 8.65 23.46L8.65 23.46L8.65 23.46Q8.55 23.52 8.52 23.71L8.52 23.71L8.52 23.71Q8.67 23.52 8.79 23.50L8.79 23.50L8.79 23.50Q8.91 23.48 8.91 23.32ZM10.94 23.24L10.94 23.24L10.94 23.24Q10.55 23.32 10.51 23.26L10.51 23.26L10.51 23.26Q10.47 23.20 10.39 23.24L10.39 23.24L10.39 23.24Q10.27 23.32 10.18 23.42L10.18 23.42L10.18 23.42Q10.08 23.52 9.96 23.59L9.96 23.59L9.96 23.59Q9.69 23.95 9.47 23.91L9.47 23.91L9.47 23.91Q9.26 23.87 9.02 23.91L9.02 23.91L9.02 23.91Q8.67 24.49 8.32 24.71L8.32 24.71L8.32 24.71Q7.97 24.92 7.89 25.51L7.89 25.51L7.89 25.51Q8.40 25.23 8.57 25.04L8.57 25.04L8.57 25.04Q8.75 24.84 9.06 24.88L9.06 24.88L9.06 24.88Q9.22 24.45 9.34 24.51L9.34 24.51L9.34 24.51Q9.45 24.57 9.53 24.49L9.53 24.49L9.53 24.49Q9.80 24.34 9.90 24.16L9.90 24.16L9.90 24.16Q10 23.98 10.20 24.06L10.20 24.06L10.20 24.06Q10.35 24.02 10.39 23.87L10.39 23.87L10.39 23.87Q10.43 23.71 10.63 23.79L10.63 23.79L10.63 23.79Q10.59 23.52 10.94 23.24ZM10.16 26.80L10.16 26.80L10.16 26.80Q9.80 26.80 9.41 26.80L9.41 26.80L9.41 26.80Q9.38 27.07 9.12 27.15L9.12 27.15L9.12 27.15Q8.87 27.23 8.59 27.38L8.59 27.38L8.59 27.38Q8.55 27.58 8.38 27.66L8.38 27.66L8.38 27.66Q8.20 27.73 8.05 27.85L8.05 27.85L8.05 27.85Q8.28 28.09 8.40 27.93L8.40 27.93L8.40 27.93Q8.52 27.77 8.59 27.89L8.59 27.89L8.59 27.89Q8.63 27.70 8.85 27.56L8.85 27.56L8.85 27.56Q9.06 27.42 9.26 27.62L9.26 27.62L9.26 27.62Q8.87 28.09 8.67 28.18L8.67 28.18L8.67 28.18Q8.48 28.28 8.24 28.36L8.24 28.36L8.24 28.36Q8.20 28.55 7.95 28.75L7.95 28.75L7.95 28.75Q7.70 28.95 7.81 29.18L7.81 29.18L7.81 29.18Q8.24 28.95 8.57 28.63L8.57 28.63L8.57 28.63Q8.91 28.32 9.34 28.01L9.34 28.01L9.34 28.01Q9.84 27.77 9.86 27.40L9.86 27.40L9.86 27.40Q9.88 27.03 10.16 26.80ZM8.01 27.38L8.01 27.38L8.01 27.38Q7.93 27.19 7.83 27.13L7.83 27.13L7.83 27.13Q7.73 27.07 7.70 26.88L7.70 26.88L7.70 26.88Q7.89 26.91 7.99 26.78L7.99 26.78L7.99 26.78Q8.09 26.64 8.01 26.56L8.01 26.56L8.01 26.56Q7.89 26.64 7.81 26.72L7.81 26.72L7.81 26.72Q7.73 26.80 7.58 26.80L7.58 26.80L7.58 26.80Q7.54 26.99 7.46 27.27L7.46 27.27L7.46 27.27Q7.38 27.54 7.54 27.73L7.54 27.73L7.54 27.73Q7.73 27.73 7.81 27.60L7.81 27.60L7.81 27.60Q7.89 27.46 8.01 27.38ZM9.53 28.71L9.53 28.71L9.53 28.71Q9.30 28.67 9.20 28.83L9.20 28.83L9.20 28.83Q9.10 28.98 8.95 29.06L8.95 29.06L8.95 29.06Q8.63 29.22 8.40 29.43L8.40 29.43L8.40 29.43Q8.16 29.65 7.85 29.84L7.85 29.84L7.85 29.84Q8.13 30.12 8.20 29.92L8.20 29.92L8.20 29.92Q8.28 29.73 8.52 29.77L8.52 29.77L8.52 29.77Q8.59 29.61 8.73 29.49L8.73 29.49L8.73 29.49Q8.87 29.38 9.06 29.30L9.06 29.30L9.06 29.30Q9.34 28.98 9.41 28.91L9.41 28.91L9.41 28.91Q9.49 28.83 9.53 28.71ZM10.78 32.11L10.78 32.11L10.78 32.11Q10.16 31.80 9.94 31.25L9.94 31.25L9.94 31.25Q9.73 30.70 9.45 30.04L9.45 30.04L9.45 30.04Q9.49 29.84 9.53 29.73L9.53 29.73L9.53 29.73Q9.57 29.61 9.49 29.41L9.49 29.41L9.49 29.41Q9.06 29.45 8.79 29.88L8.79 29.88L8.79 29.88Q8.91 29.88 9.06 29.96L9.06 29.96L9.06 29.96Q9.22 30.04 9.30 30.20L9.30 30.20L9.30 30.20Q9.02 30.51 9.00 30.57L9.00 30.57L9.00 30.57Q8.98 30.63 8.91 30.63L8.91 30.63L8.91 30.63Q8.79 30.90 8.77 30.94L8.77 30.94L8.77 30.94Q8.75 30.98 8.67 31.05L8.67 31.05L8.67 31.05Q9.14 31.48 9.39 31.33L9.39 31.33L9.39 31.33Q9.65 31.17 9.80 31.45L9.80 31.45L9.80 31.45Q9.49 31.76 9.63 31.86L9.63 31.86L9.63 31.86Q9.77 31.95 9.98 32.01L9.98 32.01L9.98 32.01Q10.20 32.07 10.41 32.07L10.41 32.07L10.41 32.07Q10.63 32.07 10.78 32.11ZM1.99 20.55L1.99 20.55L1.99 20.55Q1.80 20.55 1.82 20.74L1.82 20.74L1.82 20.74Q1.84 20.94 1.68 21.02L1.68 21.02L1.68 21.02Q1.60 21.52 1.50 22.09L1.50 22.09L1.50 22.09Q1.41 22.66 1.25 23.20L1.25 23.20L1.25 23.20Q1.13 23.67 1.15 24.08L1.15 24.08L1.15 24.08Q1.17 24.49 1.21 24.73L1.21 24.73L1.21 24.73Q1.37 24.26 1.50 24.24L1.50 24.24L1.50 24.24Q1.64 24.22 1.76 24.14L1.76 24.14L1.76 24.14Q1.37 23.91 1.48 23.89L1.48 23.89L1.48 23.89Q1.60 23.87 1.60 23.71L1.60 23.71L1.60 23.71Q1.52 23.16 1.72 22.85L1.72 22.85L1.72 22.85Q1.64 22.58 1.72 22.40L1.72 22.40L1.72 22.40Q1.80 22.23 1.91 22.07L1.91 22.07L1.91 22.07Q1.84 21.76 1.93 21.33L1.93 21.33L1.93 21.33Q2.03 20.90 1.99 20.55ZM8.59 30.55L8.59 30.55L8.59 30.55Q8.44 30.55 8.36 30.74L8.36 30.74L8.36 30.74Q8.28 30.94 8.48 31.02L8.48 31.02L8.48 31.02Q8.55 30.94 8.61 30.74L8.61 30.74L8.61 30.74Q8.67 30.55 8.59 30.55ZM1.68 24.84L1.68 24.84L1.68 24.84Q1.29 24.84 1.25 24.88L1.25 24.88L1.25 24.88Q1.21 24.92 1.25 25.08L1.25 25.08L1.25 25.08Q1.52 24.92 1.56 24.92L1.56 24.92L1.56 24.92Q1.60 24.92 1.68 24.84ZM1.52 25.63L1.68 25.39L1.68 25.39Q1.45 25.23 1.39 25.37L1.39 25.37L1.39 25.37Q1.33 25.51 1.17 25.55L1.17 25.55L1.17 25.55Q1.25 25.74 1.13 25.80L1.13 25.80L1.13 25.80Q1.02 25.86 1.05 26.05L1.05 26.05L1.05 26.05Q1.29 25.90 1.31 25.80L1.31 25.80L1.31 25.80Q1.33 25.70 1.52 25.63L1.52 25.63ZM2.03 27.54L2.15 27.30L2.15 27.30Q1.80 27.11 1.74 27.13L1.74 27.13L1.74 27.13Q1.68 27.15 1.60 27.15L1.60 27.15L1.60 27.15Q1.68 27.54 1.82 27.50L1.82 27.50L1.82 27.50Q1.95 27.46 2.03 27.54L2.03 27.54ZM1.84 26.41L1.84 26.41L1.84 26.41Q1.56 26.37 1.56 26.76L1.56 26.76L1.56 26.76Q1.45 26.91 1.23 27.09L1.23 27.09L1.23 27.09Q1.02 27.27 1.13 27.46L1.13 27.46L1.13 27.46Q1.45 27.15 1.46 27.17L1.46 27.17L1.46 27.17Q1.48 27.19 1.52 27.19L1.52 27.19L1.52 27.19Q1.56 26.91 1.66 26.82L1.66 26.82L1.66 26.82Q1.76 26.72 1.84 26.41ZM2.30 28.87L2.30 28.87L2.30 28.87Q2.27 28.75 2.21 28.67L2.21 28.67L2.21 28.67Q2.15 28.59 2.15 28.44L2.15 28.44L2.15 28.44Q2.19 28.05 2.19 27.93L2.19 27.93L2.19 27.93Q2.19 27.81 2.19 27.70L2.19 27.70L2.19 27.70Q2.11 27.97 1.91 28.20L1.91 28.20L1.91 28.20Q1.72 28.44 1.60 28.75L1.60 28.75L1.60 28.75Q1.91 28.36 1.76 27.93L1.76 27.93L1.76 27.93Q1.45 28.01 1.33 28.24L1.33 28.24L1.33 28.24Q1.21 28.48 1.33 28.79L1.33 28.79L1.33 28.79Q1.60 28.95 1.54 29.08L1.54 29.08L1.54 29.08Q1.48 29.22 1.48 29.30L1.48 29.30L1.48 29.30Q1.60 29.22 1.74 29.24L1.74 29.24L1.74 29.24Q1.88 29.26 1.95 29.14L1.95 29.14L1.95 29.14Q2.15 28.87 2.30 28.87ZM2.66 29.69L2.66 29.69L2.66 29.69Q2.27 29.65 2.19 30.06L2.19 30.06L2.19 30.06Q2.11 30.47 2.07 30.86L2.07 30.86L2.07 30.86Q2.30 30.78 2.36 30.70L2.36 30.70L2.36 30.70Q2.42 30.63 2.62 30.47L2.62 30.47L2.62 30.47Q2.54 30.27 2.64 30.14L2.64 30.14L2.64 30.14Q2.73 30 2.66 29.69ZM2.15 29.49L2.15 29.49L2.15 29.49Q1.91 29.65 1.74 29.80L1.74 29.80L1.74 29.80Q1.56 29.96 1.72 30.27L1.72 30.27L1.72 30.27Q1.80 29.80 2.15 29.49ZM3.20 31.72L3.20 31.72L3.20 31.72Q3.09 31.29 3.03 31.23L3.03 31.23L3.03 31.23Q2.97 31.17 2.89 31.13L2.89 31.13L2.89 31.13Q2.77 31.33 2.66 31.41L2.66 31.41L2.66 31.41Q2.54 31.48 2.46 31.45L2.46 31.45L2.46 31.45Q2.46 31.29 2.56 31.21L2.56 31.21L2.56 31.21Q2.66 31.13 2.62 30.98L2.62 30.98L2.62 30.98Q2.46 31.02 2.40 31.09L2.40 31.09L2.40 31.09Q2.34 31.17 2.27 31.25L2.27 31.25L2.27 31.25Q2.34 31.41 2.30 31.46L2.30 31.46L2.30 31.46Q2.27 31.52 2.23 31.68L2.23 31.68L2.23 31.68Q2.34 31.72 2.54 31.64L2.54 31.64L2.54 31.64Q2.73 31.56 2.70 31.64L2.70 31.64L2.70 31.64Q2.66 31.80 2.56 31.88L2.56 31.88L2.56 31.88Q2.46 31.95 2.42 32.15L2.42 32.15L2.42 32.15Q2.66 32.07 2.83 31.93L2.83 31.93L2.83 31.93Q3.01 31.80 3.20 31.72ZM3.87 32.81L3.87 32.81L3.87 32.81Q3.55 32.62 3.50 32.71L3.50 32.71L3.50 32.71Q3.44 32.81 3.36 32.93L3.36 32.93L3.36 32.93Q3.28 32.77 3.13 32.54L3.13 32.54L3.13 32.54Q3.24 32.50 3.24 32.36L3.24 32.36L3.24 32.36Q3.24 32.23 3.32 32.15L3.32 32.15L3.32 32.15Q3.13 32.11 2.99 32.30L2.99 32.30L2.99 32.30Q2.85 32.50 2.70 32.62L2.70 32.62L2.70 32.62Q2.77 32.73 2.83 32.81L2.83 32.81L2.83 32.81Q2.89 32.89 2.97 32.97L2.97 32.97L2.97 32.97Q3.13 32.89 3.18 32.97L3.18 32.97L3.18 32.97Q3.24 33.05 3.40 32.97L3.40 32.97L3.40 32.97Q3.40 33.13 3.28 33.30L3.28 33.30L3.28 33.30Q3.16 33.48 3.28 33.55L3.28 33.55L3.28 33.55Q3.44 33.52 3.50 33.38L3.50 33.38L3.50 33.38Q3.55 33.24 3.75 33.32L3.75 33.32L3.75 33.32Q3.75 33.13 3.83 33.07L3.83 33.07L3.83 33.07Q3.91 33.01 3.87 32.81ZM9.30 38.32L9.30 38.32L9.30 38.32Q8.83 37.97 8.63 37.87L8.63 37.87L8.63 37.87Q8.44 37.77 8.26 37.66L8.26 37.66L8.26 37.66Q8.09 37.54 7.91 37.42L7.91 37.42L7.91 37.42Q7.73 37.30 7.46 37.27L7.46 37.27L7.46 37.27Q7.19 37.07 7.05 36.89L7.05 36.89L7.05 36.89Q6.91 36.72 6.78 36.60L6.78 36.60L6.78 36.60Q6.64 36.48 6.50 36.50L6.50 36.50L6.50 36.50Q6.37 36.52 6.29 36.80L6.29 36.80L6.29 36.80Q6.95 37.27 7.62 37.68L7.62 37.68L7.62 37.68Q8.28 38.09 9.30 38.32ZM4.69 34.45L4.69 34.45L4.69 34.45Q4.38 34.10 4.38 33.83L4.38 33.83L4.38 33.83Q4.30 33.75 4.32 33.61L4.32 33.61L4.32 33.61Q4.34 33.48 4.22 33.40L4.22 33.40L4.22 33.40Q4.02 33.36 3.79 33.57L3.79 33.57L3.79 33.57Q3.55 33.79 3.48 33.98L3.48 33.98L3.48 33.98Q3.59 34.18 3.73 34.30L3.73 34.30L3.73 34.30Q3.87 34.41 3.98 34.61L3.98 34.61L3.98 34.61Q4.30 34.45 4.30 34.26L4.30 34.26L4.30 34.26Q4.38 34.34 4.49 34.36L4.49 34.36L4.49 34.36Q4.61 34.38 4.69 34.45ZM5.66 36.33L5.66 36.33L5.66 36.33Q5.66 36.05 5.63 36.00L5.63 36.00L5.63 36.00Q5.59 35.94 5.66 35.90L5.66 35.90L5.66 35.90Q5.55 35.55 5.47 35.61L5.47 35.61L5.47 35.61Q5.39 35.66 5.39 35.55L5.39 35.55L5.39 35.55Q5.27 35.16 5.20 34.88L5.20 34.88L5.20 34.88Q5.04 34.96 4.98 34.82L4.98 34.82L4.98 34.82Q4.92 34.69 4.77 34.77L4.77 34.77L4.77 34.77Q4.65 35.59 4.98 35.84L4.98 35.84L4.98 35.84Q5.31 36.09 5.66 36.33ZM28.67 24.18L28.67 24.18L28.67 24.18Q28.59 24.26 28.46 24.14L28.46 24.14L28.46 24.14Q28.32 24.02 28.16 24.14L28.16 24.14L28.16 24.14Q28.40 23.98 28.48 24.04L28.48 24.04L28.48 24.04Q28.55 24.10 28.67 24.18ZM27.62 26.41L27.77 26.68L27.77 26.68Q27.38 26.72 27.30 26.72L27.30 26.72L27.30 26.72Q27.54 26.33 27.62 26.41L27.62 26.41ZM49.69 32.85L49.69 32.85L49.69 32.85Q49.73 33.20 49.65 33.40L49.65 33.40L49.65 33.40Q49.57 33.59 49.53 33.71L49.53 33.71L49.53 33.71Q49.41 34.06 49.36 34.10L49.36 34.10L49.36 34.10Q49.30 34.14 49.22 34.18L49.22 34.18L49.22 34.18Q49.22 34.69 49.14 35.08L49.14 35.08L49.14 35.08Q49.06 35.47 48.79 35.55L48.79 35.55L48.79 35.55Q48.87 35.63 48.83 35.84L48.83 35.84L48.83 35.84Q48.79 36.05 48.48 36.02L48.48 36.02L48.48 36.02Q48.48 36.33 48.28 36.48L48.28 36.48L48.28 36.48Q48.05 36.45 48.03 36.60L48.03 36.60L48.03 36.60Q48.01 36.76 48.01 36.91L48.01 36.91L48.01 36.91Q47.70 37.19 47.42 37.48L47.42 37.48L47.42 37.48Q47.15 37.77 46.72 37.93L46.72 37.93L46.72 37.93Q46.45 38.24 46.31 38.32L46.31 38.32L46.31 38.32Q46.17 38.40 45.98 38.40L45.98 38.40L45.98 38.40Q45.86 38.52 45.55 38.71L45.55 38.71L45.55 38.71Q45.23 38.91 44.96 38.71L44.96 38.71L44.96 38.71Q44.84 38.95 44.61 39.04L44.61 39.04L44.61 39.04Q44.38 39.14 44.08 39.20L44.08 39.20L44.08 39.20Q43.79 39.26 43.52 39.32L43.52 39.32L43.52 39.32Q43.24 39.38 43.01 39.53L43.01 39.53L43.01 39.53Q42.38 39.61 42.01 39.67L42.01 39.67L42.01 39.67Q41.64 39.73 41.23 39.71L41.23 39.71L41.23 39.71Q40.82 39.69 40.41 39.65L40.41 39.65L40.41 39.65Q40 39.61 39.65 39.65L39.65 39.65L39.65 39.65Q38.83 39.49 38.42 39.30L38.42 39.30L38.42 39.30Q38.01 39.10 37.66 38.83L37.66 38.83L37.66 38.83Q37.30 38.55 36.95 38.26L36.95 38.26L36.95 38.26Q36.60 37.97 36.21 37.77L36.21 37.77L36.21 37.77Q36.05 37.46 35.74 37.30L35.74 37.30L35.74 37.30Q35.43 37.15 35.12 36.99L35.12 36.99L35.12 36.99Q35.16 36.45 34.69 36.02L34.69 36.02L34.69 36.02Q34.41 35.98 34.36 35.92L34.36 35.92L34.36 35.92Q34.30 35.86 34.22 35.78L34.22 35.78L34.22 35.78Q34.45 35.55 34.22 35.20L34.22 35.20L34.22 35.20Q33.91 35.16 33.79 35.06L33.79 35.06L33.79 35.06Q33.67 34.96 33.69 34.82L33.69 34.82L33.69 34.82Q33.71 34.69 33.79 34.53L33.79 34.53L33.79 34.53Q33.87 34.38 33.95 34.18L33.95 34.18L33.95 34.18Q33.67 33.87 33.55 33.48L33.55 33.48L33.55 33.48Q33.44 33.09 33.16 32.81L33.16 32.81L33.16 32.81Q33.24 32.58 33.07 32.71L33.07 32.71L33.07 32.71Q32.89 32.85 32.70 32.81L32.70 32.81L32.70 32.81Q32.77 32.73 32.83 32.66L32.83 32.66L32.83 32.66Q32.89 32.58 33.09 32.58L33.09 32.58L33.09 32.58Q33.13 32.27 33.14 31.97L33.14 31.97L33.14 31.97Q33.16 31.68 32.73 31.56L32.73 31.56L32.73 31.56Q32.93 31.37 32.85 31.09L32.85 31.09L32.85 31.09Q32.77 30.82 33.05 30.74L33.05 30.74L33.05 30.74Q32.54 30.82 32.52 30.72L32.52 30.72L32.52 30.72Q32.50 30.63 32.46 30.51L32.46 30.51L32.46 30.51Q32.73 30.47 32.77 30.35L32.77 30.35L32.77 30.35Q32.81 30.23 33.09 30.16L33.09 30.16L33.09 30.16Q33.01 29.84 33.01 29.63L33.01 29.63L33.01 29.63Q33.01 29.41 33.09 29.30L33.09 29.30L33.09 29.30Q32.81 28.98 32.91 28.96L32.91 28.96L32.91 28.96Q33.01 28.95 33.05 28.87L33.05 28.87L33.05 28.87Q33.20 28.40 33.14 28.22L33.14 28.22L33.14 28.22Q33.09 28.05 33.24 27.97L33.24 27.97L33.24 27.97Q33.09 27.89 33.18 27.79L33.18 27.79L33.18 27.79Q33.28 27.70 33.13 27.54L33.13 27.54L33.13 27.54Q33.44 27.03 33.50 26.78L33.50 26.78L33.50 26.78Q33.55 26.52 33.59 26.23L33.59 26.23L33.59 26.23Q33.63 25.94 33.65 25.68L33.65 25.68L33.65 25.68Q33.67 25.43 33.79 25.23L33.79 25.23L33.79 25.23Q33.59 24.96 33.69 24.82L33.69 24.82L33.69 24.82Q33.79 24.69 33.87 24.49L33.87 24.49L33.87 24.49Q34.22 24.26 34.28 24.26L34.28 24.26L34.28 24.26Q34.34 24.26 34.38 24.22L34.38 24.22L34.38 24.22Q34.53 23.87 34.63 23.63L34.63 23.63L34.63 23.63Q34.73 23.40 34.82 23.16L34.82 23.16L34.82 23.16Q34.92 22.93 35.04 22.73L35.04 22.73L35.04 22.73Q35.16 22.54 35.43 22.46L35.43 22.46L35.43 22.46Q35.47 22.07 35.63 21.86L35.63 21.86L35.63 21.86Q35.78 21.64 35.98 21.41L35.98 21.41L35.98 21.41Q36.68 21.13 37.15 20.68L37.15 20.68L37.15 20.68Q37.62 20.23 38.28 19.96L38.28 19.96L38.28 19.96Q39.14 19.57 39.98 19.28L39.98 19.28L39.98 19.28Q40.82 18.98 41.64 19.06L41.64 19.06L41.64 19.06Q41.91 18.91 42.38 18.91L42.38 18.91L42.38 18.91Q42.42 19.02 42.50 19.10L42.50 19.10L42.50 19.10Q42.58 19.18 42.62 19.30L42.62 19.30L42.62 19.30Q42.85 19.38 43.01 19.41L43.01 19.41L43.01 19.41Q43.16 19.45 43.40 19.41L43.40 19.41L43.40 19.41Q43.55 19.53 43.79 19.55L43.79 19.55L43.79 19.55Q44.02 19.57 44.10 19.73L44.10 19.73L44.10 19.73Q44.65 19.73 45.08 19.92L45.08 19.92L45.08 19.92Q45.51 20.12 45.88 20.41L45.88 20.41L45.88 20.41Q46.25 20.70 46.64 21.00L46.64 21.00L46.64 21.00Q47.03 21.29 47.50 21.45L47.50 21.45L47.50 21.45Q47.42 21.76 47.54 21.99L47.54 21.99L47.54 21.99Q47.66 22.23 47.83 22.40L47.83 22.40L47.83 22.40Q48.01 22.58 48.14 22.77L48.14 22.77L48.14 22.77Q48.28 22.97 48.28 23.20L48.28 23.20L48.28 23.20Q48.36 23.32 48.46 23.44L48.46 23.44L48.46 23.44Q48.55 23.55 48.63 23.71L48.63 23.71L48.63 23.71Q48.59 24.10 48.79 24.14L48.79 24.14L48.79 24.14Q48.98 25 49.06 25.53L49.06 25.53L49.06 25.53Q49.14 26.05 49.41 26.76L49.41 26.76L49.41 26.76Q49.18 27.15 49.28 27.13L49.28 27.13L49.28 27.13Q49.38 27.11 49.41 27.19L49.41 27.19L49.41 27.19Q49.45 27.66 49.22 27.77L49.22 27.77L49.22 27.77Q49.69 28.01 49.43 28.26L49.43 28.26L49.43 28.26Q49.18 28.52 49.10 28.75L49.10 28.75L49.10 28.75Q48.98 29.06 49.06 29.32L49.06 29.32L49.06 29.32Q49.14 29.57 48.95 29.77L48.95 29.77L48.95 29.77Q48.44 29.53 47.93 29.84L47.93 29.84L47.93 29.84Q47.46 29.73 46.99 29.69L46.99 29.69L46.99 29.69Q46.52 29.65 46.09 29.84L46.09 29.84L46.09 29.84Q45.63 30.08 45.18 29.94L45.18 29.94L45.18 29.94Q44.73 29.80 44.22 29.77L44.22 29.77L44.22 29.77Q43.13 29.77 42.05 29.80L42.05 29.80L42.05 29.80Q40.98 29.84 39.84 29.69L39.84 29.69L39.84 29.69Q39.61 29.84 39.30 29.84L39.30 29.84L39.30 29.84Q38.98 29.84 38.69 29.84L38.69 29.84L38.69 29.84Q38.40 29.84 38.18 29.92L38.18 29.92L38.18 29.92Q37.97 30 37.93 30.31L37.93 30.31L37.93 30.31Q37.93 30.78 37.89 30.92L37.89 30.92L37.89 30.92Q37.85 31.05 37.97 31.17L37.97 31.17L37.97 31.17Q37.97 31.60 37.97 31.74L37.97 31.74L37.97 31.74Q37.97 31.88 37.93 32.03L37.93 32.03L37.93 32.03Q38.24 32.15 38.30 32.46L38.30 32.46L38.30 32.46Q38.36 32.77 38.01 32.89L38.01 32.89L38.01 32.89Q38.09 33.13 38.11 33.32L38.11 33.32L38.11 33.32Q38.13 33.52 38.20 33.71L38.20 33.71L38.20 33.71Q38.40 33.59 38.52 33.69L38.52 33.69L38.52 33.69Q38.63 33.79 38.63 33.93L38.63 33.93L38.63 33.93Q38.63 34.06 38.54 34.22L38.54 34.22L38.54 34.22Q38.44 34.38 38.24 34.38L38.24 34.38L38.24 34.38Q38.40 34.53 38.40 34.73L38.40 34.73L38.40 34.73Q38.40 34.92 38.48 35.16L38.48 35.16L38.48 35.16Q38.67 35.16 38.71 35.08L38.71 35.08L38.71 35.08Q38.75 35 38.91 35.08L38.91 35.08L38.91 35.08Q38.71 35.43 38.87 35.51L38.87 35.51L38.87 35.51Q39.02 35.59 38.91 35.78L38.91 35.78L38.91 35.78Q38.87 36.02 39.08 36.46L39.08 36.46L39.08 36.46Q39.30 36.91 39.69 37.27L39.69 37.27L39.69 37.27Q40.23 37.73 40.72 38.20L40.72 38.20L40.72 38.20Q41.21 38.67 41.91 38.75L41.91 38.75L41.91 38.75Q42.42 38.83 42.95 38.67L42.95 38.67L42.95 38.67Q43.48 38.52 44.10 38.44L44.10 38.44L44.10 38.44Q44.34 38.28 44.61 38.20L44.61 38.20L44.61 38.20Q44.88 38.13 45.16 38.07L45.16 38.07L45.16 38.07Q45.43 38.01 45.68 37.91L45.68 37.91L45.68 37.91Q45.94 37.81 46.05 37.58L46.05 37.58L46.05 37.58Q46.37 37.50 46.54 37.29L46.54 37.29L46.54 37.29Q46.72 37.07 47.07 36.99L47.07 36.99L47.07 36.99Q47.15 36.84 47.29 36.80L47.29 36.80L47.29 36.80Q47.42 36.76 47.42 36.48L47.42 36.48L47.42 36.48Q47.73 36.29 48.01 35.64L48.01 35.64L48.01 35.64Q48.28 35 48.36 34.53L48.36 34.53L48.36 34.53Q48.44 34.02 48.34 33.48L48.34 33.48L48.34 33.48Q48.24 32.93 48.16 32.50L48.16 32.50L48.16 32.50Q48.20 31.99 48.18 31.78L48.18 31.78L48.18 31.78Q48.16 31.56 48.36 31.52L48.36 31.52L48.36 31.52Q48.44 31.21 48.67 31.17L48.67 31.17L48.67 31.17Q48.91 31.13 49.12 31.23L49.12 31.23L49.12 31.23Q49.34 31.33 49.47 31.50L49.47 31.50L49.47 31.50Q49.61 31.68 49.57 31.88L49.57 31.88L49.57 31.88Q49.69 32.19 49.59 32.44L49.59 32.44L49.59 32.44Q49.49 32.70 49.69 32.85ZM46.09 21.76L46.09 21.76L46.09 21.76Q45.94 21.68 46.07 21.54L46.07 21.54L46.07 21.54Q46.21 21.41 46.05 21.33L46.05 21.33L46.05 21.33Q45.98 21.56 45.68 21.64L45.68 21.64L45.68 21.64Q45.39 21.72 45.47 21.95L45.47 21.95L45.47 21.95Q45.59 21.76 45.80 21.76L45.80 21.76L45.80 21.76Q46.02 21.76 46.09 21.76ZM47.93 23.55L47.93 23.55L47.93 23.55Q47.85 23.28 47.77 23.26L47.77 23.26L47.77 23.26Q47.70 23.24 47.60 23.30L47.60 23.30L47.60 23.30Q47.50 23.36 47.34 23.46L47.34 23.46L47.34 23.46Q47.19 23.55 46.99 23.48L46.99 23.48L46.99 23.48Q46.95 23.59 46.88 23.69L46.88 23.69L46.88 23.69Q46.80 23.79 46.72 23.87L46.72 23.87L46.72 23.87Q46.88 23.83 46.99 23.81L46.99 23.81L46.99 23.81Q47.11 23.79 47.27 23.91L47.27 23.91L47.27 23.91Q47.50 23.75 47.62 23.65L47.62 23.65L47.62 23.65Q47.73 23.55 47.93 23.55ZM44.96 20.51L44.96 20.51L44.96 20.51Q44.73 20.43 44.41 20.29L44.41 20.29L44.41 20.29Q44.10 20.16 43.91 20.31L43.91 20.31L43.91 20.31Q44.14 20.43 44.20 20.72L44.20 20.72L44.20 20.72Q44.26 21.02 44.57 21.09L44.57 21.09L44.57 21.09Q44.65 20.94 44.77 20.82L44.77 20.82L44.77 20.82Q44.88 20.70 44.96 20.51ZM46.99 22.73L46.99 22.73L46.99 22.73Q47.19 22.62 47.17 22.40L47.17 22.40L47.17 22.40Q47.15 22.19 46.91 22.11L46.91 22.11L46.91 22.11Q46.60 22.42 46.41 22.44L46.41 22.44L46.41 22.44Q46.21 22.46 46.09 22.62L46.09 22.62L46.09 22.62Q46.41 22.15 46.52 22.09L46.52 22.09L46.52 22.09Q46.64 22.03 46.68 21.88L46.68 21.88L46.68 21.88Q46.48 21.84 46.41 21.86L46.41 21.86L46.41 21.86Q46.33 21.88 46.25 21.93L46.25 21.93L46.25 21.93Q46.17 21.99 46.07 22.01L46.07 22.01L46.07 22.01Q45.98 22.03 45.82 21.91L45.82 21.91L45.82 21.91Q45.59 22.30 45.27 22.48L45.27 22.48L45.27 22.48Q44.96 22.66 44.88 22.85L44.88 22.85L44.88 22.85Q45.16 23.36 45.10 23.40L45.10 23.40L45.10 23.40Q45.04 23.44 45 23.52L45 23.52L45 23.52Q45.08 23.59 45.12 23.69L45.12 23.69L45.12 23.69Q45.16 23.79 45.31 23.83L45.31 23.83L45.31 23.83Q45.43 23.55 45.61 23.36L45.61 23.36L45.61 23.36Q45.78 23.16 46.09 23.13L46.09 23.13L46.09 23.13Q46.17 22.93 46.43 22.79L46.43 22.79L46.43 22.79Q46.68 22.66 46.99 22.73ZM47.81 23.98L47.81 23.98L47.81 23.98Q47.58 23.91 47.34 23.98L47.34 23.98L47.34 23.98Q47.11 24.06 46.91 24.20L46.91 24.20L46.91 24.20Q46.72 24.34 46.48 24.45L46.48 24.45L46.48 24.45Q46.25 24.57 46.02 24.61L46.02 24.61L46.02 24.61Q45.94 24.69 45.86 24.77L45.86 24.77L45.86 24.77Q45.78 24.84 45.70 24.96L45.70 24.96L45.70 24.96Q45.63 25.08 45.51 25.10L45.51 25.10L45.51 25.10Q45.39 25.12 45.27 25.20L45.27 25.20L45.27 25.20Q45.16 25.70 45.55 25.78L45.55 25.78L45.55 25.78Q45.66 25.43 45.98 25.23L45.98 25.23L45.98 25.23Q46.29 25.04 46.60 24.84L46.60 24.84L46.60 24.84Q46.72 24.45 47.13 24.36L47.13 24.36L47.13 24.36Q47.54 24.26 47.81 23.98ZM48.36 24.84L48.36 24.84L48.36 24.84Q48.36 24.41 48.13 24.36L48.13 24.36L48.13 24.36Q47.89 24.30 47.62 24.38L47.62 24.38L47.62 24.38Q47.38 24.65 47.34 24.57L47.34 24.57L47.34 24.57Q47.30 24.49 47.15 24.53L47.15 24.53L47.15 24.53Q47.03 25.20 46.86 25.21L46.86 25.21L46.86 25.21Q46.68 25.23 46.60 25.47L46.60 25.47L46.60 25.47Q46.17 25.55 46.00 25.86L46.00 25.86L46.00 25.86Q45.82 26.17 45.47 26.33L45.47 26.33L45.47 26.33Q45.55 26.48 45.84 26.43L45.84 26.43L45.84 26.43Q46.13 26.37 46.25 26.17L46.25 26.17L46.25 26.17Q46.37 26.09 46.60 25.98L46.60 25.98L46.60 25.98Q46.84 25.86 47.07 25.90L47.07 25.90L47.07 25.90Q47.07 25.63 47.38 25.55L47.38 25.55L47.38 25.55Q47.70 25.47 47.81 25.27L47.81 25.27L47.81 25.27Q48.09 24.92 48.36 24.84ZM48.67 25.94L48.67 25.94L48.67 25.94Q48.44 26.02 48.24 26.07L48.24 26.07L48.24 26.07Q48.05 26.13 47.85 26.25L47.85 26.25L47.85 26.25Q47.42 26.52 47.29 26.84L47.29 26.84L47.29 26.84Q47.15 27.15 46.76 27.23L46.76 27.23L46.76 27.23Q47.30 27.15 47.36 27.05L47.36 27.05L47.36 27.05Q47.42 26.95 47.66 26.99L47.66 26.99L47.66 26.99Q47.93 26.68 48.11 26.60L48.11 26.60L48.11 26.60Q48.28 26.52 48.44 26.46L48.44 26.46L48.44 26.46Q48.59 26.41 48.69 26.31L48.69 26.31L48.69 26.31Q48.79 26.21 48.67 25.94ZM47.23 26.13L47.23 26.13L47.23 26.13Q46.72 26.33 46.31 26.62L46.31 26.62L46.31 26.62Q45.90 26.91 45.47 27.15L45.47 27.15L45.47 27.15Q45.39 27.34 45.41 27.50L45.41 27.50L45.41 27.50Q45.43 27.66 45.59 27.73L45.59 27.73L45.59 27.73Q45.66 27.46 45.98 27.30L45.98 27.30L45.98 27.30Q46.29 27.15 46.37 26.84L46.37 26.84L46.37 26.84Q46.76 26.64 46.99 26.54L46.99 26.54L46.99 26.54Q47.23 26.45 47.23 26.13ZM48.63 27.93L48.63 27.93L48.63 27.93Q47.93 28.13 47.54 28.52L47.54 28.52L47.54 28.52Q47.19 28.48 46.91 28.73L46.91 28.73L46.91 28.73Q46.64 28.98 46.37 29.18L46.37 29.18L46.37 29.18Q46.99 29.18 47.48 29.18L47.48 29.18L47.48 29.18Q47.97 29.18 48.44 29.06L48.44 29.06L48.44 29.06Q48.36 28.44 48.52 28.34L48.52 28.34L48.52 28.34Q48.67 28.24 48.63 27.93ZM44.96 29.14L44.96 29.14L44.96 29.14Q44.73 28.83 44.61 28.75L44.61 28.75L44.61 28.75Q44.96 28.01 44.96 27.19L44.96 27.19L44.96 27.19Q44.73 27.03 44.69 26.82L44.69 26.82L44.69 26.82Q44.65 26.60 44.71 26.37L44.71 26.37L44.71 26.37Q44.77 26.13 44.80 25.90L44.80 25.90L44.80 25.90Q44.84 25.66 44.80 25.51L44.80 25.51L44.80 25.51Q44.57 25.59 44.41 25.51L44.41 25.51L44.41 25.51Q44.26 25.43 44.10 25.31L44.10 25.31L44.10 25.31Q44.38 24.84 44.53 24.71L44.53 24.71L44.53 24.71Q44.69 24.57 44.73 24.30L44.73 24.30L44.73 24.30Q44.22 24.22 44.28 23.85L44.28 23.85L44.28 23.85Q44.34 23.48 44.45 23.13L44.45 23.13L44.45 23.13Q44.34 22.97 44.20 22.85L44.20 22.85L44.20 22.85Q44.06 22.73 43.95 22.62L43.95 22.62L43.95 22.62Q44.02 22.50 44.08 22.34L44.08 22.34L44.08 22.34Q44.14 22.19 44.22 22.07L44.22 22.07L44.22 22.07Q44.10 21.72 43.96 21.39L43.96 21.39L43.96 21.39Q43.83 21.05 43.65 20.78L43.65 20.78L43.65 20.78Q43.48 20.51 43.20 20.35L43.20 20.35L43.20 20.35Q42.93 20.20 42.46 20.23L42.46 20.23L42.46 20.23Q41.91 20.08 41.64 20.18L41.64 20.18L41.64 20.18Q41.37 20.27 41.02 20.27L41.02 20.27L41.02 20.27Q40.78 20.47 40.59 20.76L40.59 20.76L40.59 20.76Q40.39 21.05 40.04 21.17L40.04 21.17L40.04 21.17Q39.92 21.25 39.79 21.19L39.79 21.19L39.79 21.19Q39.65 21.13 39.57 21.33L39.57 21.33L39.57 21.33Q39.88 21.41 39.86 21.48L39.86 21.48L39.86 21.48Q39.84 21.56 39.92 21.72L39.92 21.72L39.92 21.72Q39.80 21.84 39.65 21.99L39.65 21.99L39.65 21.99Q39.49 22.15 39.39 22.30L39.39 22.30L39.39 22.30Q39.30 22.46 39.32 22.60L39.32 22.60L39.32 22.60Q39.34 22.73 39.61 22.85L39.61 22.85L39.61 22.85Q39.34 23.28 39.24 23.20L39.24 23.20L39.24 23.20Q39.14 23.13 39.02 23.13L39.02 23.13L39.02 23.13Q39.06 23.36 39.04 23.46L39.04 23.46L39.04 23.46Q39.02 23.55 38.83 23.52L38.83 23.52L38.83 23.52Q38.71 24.22 38.05 24.69L38.05 24.69L38.05 24.69Q38.09 25 38.18 25L38.18 25L38.18 25Q38.28 25 38.28 25.12L38.28 25.12L38.28 25.12Q38.09 25.27 38.05 25.63L38.05 25.63L38.05 25.63Q38.01 25.98 38.05 26.17L38.05 26.17L38.05 26.17Q37.85 26.84 37.85 27.34L37.85 27.34L37.85 27.34Q37.85 27.85 37.66 28.32L37.66 28.32L37.66 28.32Q37.77 28.55 37.81 28.73L37.81 28.73L37.81 28.73Q37.85 28.91 37.89 29.26L37.89 29.26L37.89 29.26Q38.91 29.18 39.98 29.20L39.98 29.20L39.98 29.20Q41.05 29.22 42.07 29.30L42.07 29.30L42.07 29.30Q42.42 29.34 42.79 29.28L42.79 29.28L42.79 29.28Q43.16 29.22 43.48 29.26L43.48 29.26L43.48 29.26Q43.91 29.30 44.26 29.32L44.26 29.32L44.26 29.32Q44.61 29.34 44.96 29.14ZM49.10 32.11L49.10 32.11L49.10 32.11Q48.91 32.46 48.81 32.79L48.81 32.79L48.81 32.79Q48.71 33.13 48.91 33.32L48.91 33.32L48.91 33.32Q48.98 33.13 49.02 32.77L49.02 32.77L49.02 32.77Q49.06 32.42 49.10 32.11ZM38.71 20.66L38.71 20.66L38.71 20.66Q38.44 20.59 38.30 20.68L38.30 20.68L38.30 20.68Q38.16 20.78 38.01 20.66L38.01 20.66L38.01 20.66Q37.81 20.90 37.60 21.05L37.60 21.05L37.60 21.05Q37.38 21.21 37.03 21.29L37.03 21.29L37.03 21.29Q36.72 21.64 36.43 21.88L36.43 21.88L36.43 21.88Q36.13 22.11 36.21 22.42L36.21 22.42L36.21 22.42Q35.66 22.70 35.78 22.85L35.78 22.85L35.78 22.85Q35.74 23.20 35.90 23.03L35.90 23.03L35.90 23.03Q36.05 22.85 36.25 22.73L36.25 22.73L36.25 22.73Q36.56 22.58 36.80 22.42L36.80 22.42L36.80 22.42Q37.03 22.27 37.03 22.11L37.03 22.11L37.03 22.11Q37.46 21.80 37.87 21.41L37.87 21.41L37.87 21.41Q38.28 21.02 38.71 20.66ZM38.01 22.46L38.01 22.46L38.01 22.46Q37.42 22.50 37.05 22.75L37.05 22.75L37.05 22.75Q36.68 23.01 36.21 23.20L36.21 23.20L36.21 23.20Q35.59 23.55 35.78 23.71L35.78 23.71L35.78 23.71Q35.98 23.87 35.98 24.14L35.98 24.14L35.98 24.14Q35.78 24.34 35.74 24.38L35.74 24.38L35.74 24.38Q35.70 24.41 35.63 24.45L35.63 24.45L35.63 24.45Q35.39 24.53 35.39 24.45L35.39 24.45L35.39 24.45Q35.39 24.38 35.20 24.45L35.20 24.45L35.20 24.45Q34.80 24.57 34.80 24.73L34.80 24.73L34.80 24.73Q34.80 24.88 34.84 25.06L34.84 25.06L34.84 25.06Q34.88 25.23 34.92 25.39L34.92 25.39L34.92 25.39Q34.73 25.47 34.63 25.68L34.63 25.68L34.63 25.68Q34.53 25.90 34.22 25.90L34.22 25.90L34.22 25.90Q34.18 26.09 34.12 26.33L34.12 26.33L34.12 26.33Q34.06 26.56 33.98 26.76L33.98 26.76L33.98 26.76Q34.02 27.07 33.91 27.23L33.91 27.23L33.91 27.23Q33.79 27.38 33.83 27.70L33.83 27.70L33.83 27.70Q33.95 27.93 33.93 28.14L33.93 28.14L33.93 28.14Q33.91 28.36 33.98 28.48L33.98 28.48L33.98 28.48Q34.26 28.28 34.51 28.32L34.51 28.32L34.51 28.32Q34.77 28.36 34.96 28.13L34.96 28.13L34.96 28.13Q35.12 27.81 35.04 27.77L35.04 27.77L35.04 27.77Q34.96 27.73 35 27.62L35 27.62L35 27.62Q35.20 27.46 35.43 27.34L35.43 27.34L35.43 27.34Q35.66 27.23 35.86 27.07L35.86 27.07L35.86 27.07Q36.09 27.07 36.21 26.97L36.21 26.97L36.21 26.97Q36.33 26.88 36.52 26.88L36.52 26.88L36.52 26.88Q36.68 26.91 36.80 26.86L36.80 26.86L36.80 26.86Q36.91 26.80 36.99 26.72L36.99 26.72L36.99 26.72Q37.30 26.45 37.38 26.46L37.38 26.46L37.38 26.46Q37.46 26.48 37.46 26.41L37.46 26.41L37.46 26.41Q37.30 26.21 37.36 25.94L37.36 25.94L37.36 25.94Q37.42 25.66 37.23 25.39L37.23 25.39L37.23 25.39Q37.54 25.31 37.64 24.94L37.64 24.94L37.64 24.94Q37.73 24.57 37.46 24.34L37.46 24.34L37.46 24.34Q37.27 24.38 37.15 24.51L37.15 24.51L37.15 24.51Q37.03 24.65 36.84 24.73L36.84 24.73L36.84 24.73Q37.23 24.18 37.62 24.30L37.62 24.30L37.62 24.30Q37.54 23.91 37.34 23.87L37.34 23.87L37.34 23.87Q37.03 24.14 36.60 24.41L36.60 24.41L36.60 24.41Q36.76 24.14 36.72 24.10L36.72 24.10L36.72 24.10Q36.68 24.06 36.68 23.98L36.68 23.98L36.68 23.98Q37.03 23.91 37.09 23.85L37.09 23.85L37.09 23.85Q37.15 23.79 37.23 23.71L37.23 23.71L37.23 23.71Q37.62 23.79 37.68 23.50L37.68 23.50L37.68 23.50Q37.73 23.20 37.81 23.05L37.81 23.05L37.81 23.05Q37.50 23.01 37.38 23.24L37.38 23.24L37.38 23.24Q37.27 23.48 36.95 23.36L36.95 23.36L36.95 23.36Q36.80 23.67 36.56 23.85L36.56 23.85L36.56 23.85Q36.33 24.02 36.02 23.91L36.02 23.91L36.02 23.91Q36.13 23.71 36.23 23.59L36.23 23.59L36.23 23.59Q36.33 23.48 36.56 23.55L36.56 23.55L36.56 23.55Q36.56 23.36 36.64 23.24L36.64 23.24L36.64 23.24Q36.72 23.13 36.95 23.16L36.95 23.16L36.95 23.16Q36.95 22.93 37.07 22.95L37.07 22.95L37.07 22.95Q37.19 22.97 37.34 22.89L37.34 22.89L37.34 22.89Q37.66 22.73 37.73 22.64L37.73 22.64L37.73 22.64Q37.81 22.54 38.01 22.46ZM37.38 31.21L37.38 31.21L37.38 31.21Q37.23 30.86 37.38 30.66L37.38 30.66L37.38 30.66Q37.30 30.08 37.29 29.92L37.29 29.92L37.29 29.92Q37.27 29.77 37.19 29.61L37.19 29.61L37.19 29.61Q37.07 29.57 37.01 29.65L37.01 29.65L37.01 29.65Q36.95 29.73 36.76 29.69L36.76 29.69L36.76 29.69Q36.64 29.34 36.54 29.26L36.54 29.26L36.54 29.26Q36.45 29.18 36.41 29.10L36.41 29.10L36.41 29.10Q36.80 28.95 36.95 28.83L36.95 28.83L36.95 28.83Q37.11 28.71 37.27 28.55L37.27 28.55L37.27 28.55Q37.19 28.13 37.23 27.83L37.23 27.83L37.23 27.83Q37.27 27.54 37.23 27.15L37.23 27.15L37.23 27.15Q36.99 27.27 36.82 27.17L36.82 27.17L36.82 27.17Q36.64 27.07 36.64 27.15L36.64 27.15L36.64 27.15Q36.68 27.34 36.37 27.29L36.37 27.29L36.37 27.29Q36.05 27.23 35.94 27.34L35.94 27.34L35.94 27.34Q36.33 27.42 36.41 27.44L36.41 27.44L36.41 27.44Q36.48 27.46 36.52 27.54L36.52 27.54L36.52 27.54Q36.33 27.62 36.19 27.73L36.19 27.73L36.19 27.73Q36.05 27.85 35.90 27.93L35.90 27.93L35.90 27.93Q36.17 28.09 36.46 28.01L36.46 28.01L36.46 28.01Q36.76 27.93 36.95 28.09L36.95 28.09L36.95 28.09Q36.76 28.44 36.48 28.57L36.48 28.57L36.48 28.57Q36.21 28.71 35.98 28.83L35.98 28.83L35.98 28.83Q35.98 28.44 36.09 28.48L36.09 28.48L36.09 28.48Q36.21 28.52 36.25 28.44L36.25 28.44L36.25 28.44Q36.09 28.44 35.96 28.42L35.96 28.42L35.96 28.42Q35.82 28.40 35.63 28.36L35.63 28.36L35.63 28.36Q35.55 28.44 35.47 28.55L35.47 28.55L35.47 28.55Q35.39 28.67 35.55 28.79L35.55 28.79L35.55 28.79Q35.23 28.95 35.06 28.96L35.06 28.96L35.06 28.96Q34.88 28.98 34.69 29.06L34.69 29.06L34.69 29.06Q34.80 29.18 34.90 29.08L34.90 29.08L34.90 29.08Q35 28.98 35.12 29.18L35.12 29.18L35.12 29.18Q35.23 29.49 35.18 29.55L35.18 29.55L35.18 29.55Q35.12 29.61 35.04 29.65L35.04 29.65L35.04 29.65Q34.80 29.73 34.38 29.49L34.38 29.49L34.38 29.49Q34.06 29.57 33.93 29.57L33.93 29.57L33.93 29.57Q33.79 29.57 33.75 29.49L33.75 29.49L33.75 29.49Q33.95 29.34 34.06 29.30L34.06 29.30L34.06 29.30Q34.18 29.26 34.45 29.34L34.45 29.34L34.45 29.34Q34.41 29.14 34.36 29.10L34.36 29.10L34.36 29.10Q34.30 29.06 34.30 28.91L34.30 28.91L34.30 28.91Q34.73 28.67 34.73 28.75L34.73 28.75L34.73 28.75Q34.73 28.83 34.80 28.83L34.80 28.83L34.80 28.83Q35 28.79 35.35 28.79L35.35 28.79L35.35 28.79Q35.27 28.55 35.41 28.48L35.41 28.48L35.41 28.48Q35.55 28.40 35.55 28.16L35.55 28.16L35.55 28.16Q35.16 28.48 35.16 28.32L35.16 28.32L35.16 28.32Q35.16 28.16 34.96 28.24L34.96 28.24L34.96 28.24Q34.96 28.44 34.84 28.50L34.84 28.50L34.84 28.50Q34.73 28.55 34.57 28.52L34.57 28.52L34.57 28.52Q34.06 28.55 33.98 28.83L33.98 28.83L33.98 28.83Q33.71 29.22 33.65 29.36L33.65 29.36L33.65 29.36Q33.59 29.49 33.48 29.57L33.48 29.57L33.48 29.57Q33.75 29.73 33.71 29.77L33.71 29.77L33.71 29.77Q33.67 29.80 33.67 29.96L33.67 29.96L33.67 29.96Q33.83 29.84 34.06 29.82L34.06 29.82L34.06 29.82Q34.30 29.80 34.38 29.88L34.38 29.88L34.38 29.88Q34.14 30.35 34.08 30.31L34.08 30.31L34.08 30.31Q34.02 30.27 33.95 30.27L33.95 30.27L33.95 30.27Q33.83 30.70 34.22 30.90L34.22 30.90L34.22 30.90Q34.06 31.09 33.91 31.23L33.91 31.23L33.91 31.23Q33.75 31.37 33.67 31.68L33.67 31.68L33.67 31.68Q33.83 31.99 33.85 32.13L33.85 32.13L33.85 32.13Q33.87 32.27 33.91 32.38L33.91 32.38L33.91 32.38Q33.95 32.50 33.98 32.54L33.98 32.54L33.98 32.54Q34.02 32.58 34.18 32.46L34.18 32.46L34.18 32.46Q34.18 32.77 34.08 32.87L34.08 32.87L34.08 32.87Q33.98 32.97 34.06 33.32L34.06 33.32L34.06 33.32Q34.49 33.44 34.65 33.52L34.65 33.52L34.65 33.52Q34.65 33.83 34.49 33.81L34.49 33.81L34.49 33.81Q34.34 33.79 34.38 33.98L34.38 33.98L34.38 33.98Q34.69 33.98 34.84 33.71L34.84 33.71L34.84 33.71Q35.23 33.40 35.20 33.30L35.20 33.30L35.20 33.30Q35.16 33.20 35.20 33.16L35.20 33.16L35.20 33.16Q35.51 33.20 35.78 33.20L35.78 33.20L35.78 33.20Q35.70 33.01 35.45 33.01L35.45 33.01L35.45 33.01Q35.20 33.01 34.96 32.89L34.96 32.89L34.96 32.89Q35.12 32.73 35.33 32.68L35.33 32.68L35.33 32.68Q35.55 32.62 35.82 32.54L35.82 32.54L35.82 32.54Q35.86 32.30 35.94 32.17L35.94 32.17L35.94 32.17Q36.02 32.03 36.17 32.11L36.17 32.11L36.17 32.11Q36.05 32.46 36.15 32.52L36.15 32.52L36.15 32.52Q36.25 32.58 36.37 32.66L36.37 32.66L36.17 32.19L36.17 32.19Q36.52 31.76 36.86 31.60L36.86 31.60L36.86 31.60Q37.19 31.45 37.38 31.21ZM37.54 33.40L37.54 33.40L37.54 33.40Q37.34 33.52 37.25 33.38L37.25 33.38L37.25 33.38Q37.15 33.24 36.95 33.32L36.95 33.32L36.95 33.32Q36.76 33.55 36.64 33.63L36.64 33.63L36.64 33.63Q36.48 34.06 36.33 33.98L36.33 33.98L36.33 33.98Q35.90 34.10 35.82 34.18L35.82 34.18L35.82 34.18Q35.98 34.22 35.98 34.39L35.98 34.39L35.98 34.39Q35.98 34.57 36.25 34.49L36.25 34.49L36.25 34.49Q36.56 34.57 36.52 34.47L36.52 34.47L36.52 34.47Q36.48 34.38 36.68 34.41L36.68 34.41L36.68 34.41Q36.64 34.30 36.78 34.08L36.78 34.08L36.78 34.08Q36.91 33.87 37.38 33.95L37.38 33.95L37.38 33.95Q37.38 33.71 37.42 33.59L37.42 33.59L37.42 33.59Q37.46 33.48 37.54 33.40ZM35.43 33.79L35.47 33.67L35.47 33.67Q35.27 33.71 35.21 33.59L35.21 33.59L35.21 33.59Q35.16 33.48 34.96 33.59L34.96 33.59L34.96 33.59Q35.04 33.67 35.20 33.69L35.20 33.69L35.20 33.69Q35.35 33.71 35.43 33.79L35.43 33.79ZM40.82 39.02L40.82 39.02L40.82 39.02Q40.74 38.75 40.45 38.71L40.45 38.71L40.45 38.71Q40.16 38.67 40.08 38.36L40.08 38.36L40.08 38.36Q39.80 38.28 39.67 38.01L39.67 38.01L39.67 38.01Q39.53 37.73 39.22 37.77L39.22 37.77L39.22 37.77Q39.18 37.46 39.00 37.42L39.00 37.42L39.00 37.42Q38.83 37.38 38.63 37.30L38.63 37.30L38.63 37.30Q38.83 37.15 38.69 36.78L38.69 36.78L38.69 36.78Q38.55 36.41 38.40 36.25L38.40 36.25L38.40 36.25Q38.09 36.09 38.09 36.02L38.09 36.02L38.09 36.02Q38.09 35.94 38.16 35.74L38.16 35.74L38.16 35.74Q38.01 35.66 37.91 35.61L37.91 35.61L37.91 35.61Q37.81 35.55 37.81 35.35L37.81 35.35L37.81 35.35Q38.01 35.27 38.01 35.04L38.01 35.04L38.01 35.04Q38.01 34.80 37.81 34.69L37.81 34.69L37.81 34.69Q37.73 34.77 37.60 34.67L37.60 34.67L37.60 34.67Q37.46 34.57 37.42 34.49L37.42 34.49L37.42 34.49Q37.27 34.22 37.11 34.34L37.11 34.34L37.11 34.34Q36.95 34.45 36.82 34.59L36.82 34.59L36.82 34.59Q36.68 34.73 36.54 34.86L36.54 34.86L36.54 34.86Q36.41 35 36.13 35L36.13 35L36.13 35Q36.02 35.12 35.94 34.94L35.94 34.94L35.94 34.94Q35.86 34.77 35.78 34.69L35.78 34.69L35.78 34.69Q35.43 34.30 35.33 34.34L35.33 34.34L35.33 34.34Q35.23 34.38 35.04 34.34L35.04 34.34L35.04 34.34Q35.12 34.49 35.25 34.53L35.25 34.53L35.25 34.53Q35.39 34.57 35.51 34.45L35.51 34.45L35.51 34.45Q35.63 34.65 35.72 34.88L35.72 34.88L35.72 34.88Q35.82 35.12 35.74 35.39L35.74 35.39L35.74 35.39Q35.31 35.63 35.20 35.94L35.20 35.94L35.20 35.94Q35.59 36.02 35.84 35.96L35.84 35.96L35.84 35.96Q36.09 35.90 36.21 35.78L36.21 35.78L36.21 35.78Q36.37 36.13 36.41 36.09L36.41 36.09L36.41 36.09Q36.45 36.05 36.52 36.13L36.52 36.13L36.52 36.13Q36.52 36.02 36.66 35.96L36.66 35.96L36.66 35.96Q36.80 35.90 36.95 35.98L36.95 35.98L36.95 35.98Q37.03 35.70 37.27 35.61L37.27 35.61L37.27 35.61Q37.50 35.51 37.66 35.35L37.66 35.35L37.66 35.35Q37.42 35.90 37.01 36.19L37.01 36.19L37.01 36.19Q36.60 36.48 36.17 36.72L36.17 36.72L36.17 36.72Q36.29 37.15 36.46 37.32L36.46 37.32L36.46 37.32Q36.64 37.50 36.95 37.62L36.95 37.62L36.95 37.62Q36.91 37.38 37.03 37.27L37.03 37.27L37.03 37.27Q37.15 37.15 36.99 37.11L36.99 37.11L36.99 37.11Q37.30 37.11 37.27 37.50L37.27 37.50L37.27 37.50Q37.23 37.81 37.40 37.99L37.40 37.99L37.40 37.99Q37.58 38.16 37.79 38.30L37.79 38.30L37.79 38.30Q38.01 38.44 38.20 38.50L38.20 38.50L38.20 38.50Q38.40 38.55 38.63 38.44L38.63 38.44L39.10 38.40L39.65 38.55L39.65 38.55Q39.96 38.95 40.23 38.98L40.23 38.98L40.23 38.98Q40.51 39.02 40.82 39.02ZM35.39 33.98L35.39 33.98L35.39 33.98Q35.35 33.79 35.18 33.83L35.18 33.83L35.18 33.83Q35 33.87 34.96 33.98L34.96 33.98L34.96 33.98Q35.04 34.06 35.14 34.02L35.14 34.02L35.14 34.02Q35.23 33.98 35.39 33.98ZM45.94 22.54L45.94 22.54L45.94 22.54Q45.86 22.70 45.70 22.73L45.70 22.73L45.70 22.73Q45.55 22.77 45.55 23.09L45.55 23.09L45.55 23.09Q45.35 22.93 45.49 22.70L45.49 22.70L45.49 22.70Q45.63 22.46 45.94 22.54ZM36.64 24.73L36.64 24.73L36.64 24.73Q36.48 25 36.17 24.96L36.17 24.96L36.17 24.96Q36.25 24.84 36.41 24.82L36.41 24.82L36.41 24.82Q36.56 24.80 36.64 24.73ZM36.29 24.65L36.29 24.65L36.29 24.65Q36.21 24.65 36.09 24.73L36.09 24.73L36.09 24.73Q35.98 24.80 35.88 24.86L35.88 24.86L35.88 24.86Q35.78 24.92 35.68 24.92L35.68 24.92L35.68 24.92Q35.59 24.92 35.59 24.77L35.59 24.77L35.59 24.77Q35.98 24.73 36.29 24.65ZM36.99 25.63L37.11 25.90L37.11 25.90Q37.03 25.94 36.91 25.98L36.91 25.98L36.91 25.98Q36.80 26.02 36.68 25.94L36.68 25.94L36.68 25.94Q36.68 25.78 36.82 25.78L36.82 25.78L36.82 25.78Q36.95 25.78 36.99 25.63L36.99 25.63ZM35.94 25.31L35.94 25.31L35.94 25.31Q35.74 25.35 35.55 25.51L35.55 25.51L35.55 25.51Q35.59 25.35 35.72 25.37L35.72 25.37L35.72 25.37Q35.86 25.39 35.94 25.31ZM36.60 25.98L36.60 25.98L36.60 25.98Q36.56 26.21 36.25 26.29L36.25 26.29L36.25 26.29Q36.33 26.21 36.35 26.05L36.35 26.05L36.35 26.05Q36.37 25.90 36.60 25.98ZM36.17 26.41L36.17 26.41L36.17 26.41Q36.13 26.48 36.04 26.50L36.04 26.50L36.04 26.50Q35.94 26.52 35.86 26.54L35.86 26.54L35.86 26.54Q35.78 26.56 35.74 26.60L35.74 26.60L35.74 26.60Q35.70 26.64 35.78 26.76L35.78 26.76L35.78 26.76Q35.82 26.45 35.90 26.41L35.90 26.41L35.90 26.41Q35.98 26.37 36.17 26.41ZM36.56 29.57L36.56 29.57L36.56 29.57Q36.41 29.69 36.31 29.57L36.31 29.57L36.31 29.57Q36.21 29.45 36.13 29.38L36.13 29.38L36.13 29.38Q36.37 29.30 36.43 29.39L36.43 29.39L36.43 29.39Q36.48 29.49 36.56 29.57ZM35.94 29.30L36.05 29.61L36.05 29.61Q35.82 29.73 35.68 29.65L35.68 29.65L35.68 29.65Q35.55 29.57 35.39 29.61L35.39 29.61L35.39 29.61Q35.66 29.41 35.72 29.36L35.72 29.36L35.72 29.36Q35.78 29.30 35.94 29.30L35.94 29.30ZM35.63 30.43L35.63 30.43L35.63 30.43Q35.39 30.70 35.29 30.68L35.29 30.68L35.29 30.68Q35.20 30.66 35.20 30.74L35.20 30.74L35.20 30.74Q34.69 30.63 34.55 30.72L34.55 30.72L34.55 30.72Q34.41 30.82 34.22 30.86L34.22 30.86L34.22 30.86Q34.22 30.70 34.38 30.66L34.38 30.66L34.38 30.66Q34.53 30.63 34.45 30.43L34.45 30.43L34.45 30.43Q34.57 30.59 34.75 30.53L34.75 30.53L34.75 30.53Q34.92 30.47 35.04 30.39L35.04 30.39L35.04 30.39Q35.31 30.55 35.63 30.43ZM37.58 34.77L37.58 35L37.58 35Q37.11 35.23 37.11 35.12L37.11 35.12L37.11 35.12Q37.11 35 36.99 35L36.99 35L36.99 35Q37.27 34.80 37.34 34.79L37.34 34.79L37.34 34.79Q37.42 34.77 37.58 34.77L37.58 34.77ZM38.16 36.37L38.16 36.37L38.16 36.37Q37.97 36.29 37.89 36.37L37.89 36.37L37.89 36.37Q37.81 36.45 37.73 36.41L37.73 36.41L37.73 36.41Q37.93 36.37 38.16 36.37ZM35.08 33.13L35.08 33.13L35.08 33.13Q34.96 33.28 34.69 33.36L34.69 33.36L34.69 33.36Q34.61 33.20 34.75 33.14L34.75 33.14L34.75 33.14Q34.88 33.09 35.08 33.13ZM37.11 35.31L37.11 35.31L37.11 35.31Q37.03 35.39 36.88 35.47L36.88 35.47L36.88 35.47Q36.72 35.55 36.68 35.70L36.68 35.70L36.68 35.70Q36.29 35.90 36.29 35.80L36.29 35.80L36.29 35.80Q36.29 35.70 36.21 35.63L36.21 35.63L36.21 35.63Q36.52 35.47 36.56 35.27L36.56 35.27L36.56 35.27Q36.76 35.23 36.84 35.25L36.84 35.25L36.84 35.25Q36.91 35.27 37.11 35.31ZM38.05 37.42L38.05 37.42L38.05 37.42Q37.97 37.50 37.85 37.60L37.85 37.60L37.85 37.60Q37.73 37.70 37.62 37.62L37.62 37.62L37.62 37.62Q37.70 37.54 37.83 37.46L37.83 37.46L37.83 37.46Q37.97 37.38 38.05 37.42Z" transform="rotate(0 25.061666429042816 24.308403968811035)"></path><defs id="SvgjsDefs1012"></defs></svg></g></svg>